<?xml version="1.0" encoding="utf-8" standalone="no"?>
<!DOCTYPE svg PUBLIC "-//W3C//DTD SVG 1.1//EN"
  "http://www.w3.org/Graphics/SVG/1.1/DTD/svg11.dtd">
<!-- Created with matplotlib (http://matplotlib.org/) -->
<svg height="353pt" version="1.1" viewBox="0 0 562 353" width="562pt" xmlns="http://www.w3.org/2000/svg" xmlns:xlink="http://www.w3.org/1999/xlink">
 <defs>
  <style type="text/css">
*{stroke-linecap:butt;stroke-linejoin:round;}
  </style>
 </defs>
 <g id="figure_1">
  <g id="patch_1">
   <path d="
M0 353.096
L562.628 353.096
L562.628 0
L0 0
L0 353.096" style="fill:none;"/>
  </g>
  <g id="axes_1">
   <g id="matplotlib.axis_1"/>
   <g id="matplotlib.axis_2"/>
   <g id="patch_2">
    <path d="
M227.35 31.7609
C226.211 31.7609 225.073 31.7749 223.934 31.8028
C222.796 31.8308 221.658 31.8728 220.521 31.9287
L227.35 170.789
L227.35 31.7609
z
" style="fill:#2e3e0f;opacity:0.5;stroke:#2e3e0f;stroke-linejoin:miter;stroke-width:0.3;"/>
   </g>
   <g id="patch_3">
    <path d="
M220.862 45.8274
C186.362 47.5241 153.703 62.019 129.299 86.465
C104.895 110.911 90.4565 143.596 88.8194 178.099
C87.1822 212.602 98.4611 246.507 120.441 273.154
C142.42 299.8 173.56 317.323 207.745 322.278
L227.692 184.688
L220.862 45.8274
z
" style="fill:#4c4000;opacity:0.5;stroke:#4c4000;stroke-linejoin:miter;stroke-width:0.3;"/>
   </g>
   <g id="patch_4">
    <path d="
M212.659 335.284
C235.953 338.661 259.728 336.068 281.747 327.748
C303.765 319.428 323.314 305.652 338.555 287.714
L232.606 197.694
L212.659 335.284
z
" style="fill:#1e2d47;opacity:0.5;stroke:#1e2d47;stroke-linejoin:miter;stroke-width:0.3;"/>
   </g>
   <g id="patch_5">
    <path d="
M333.641 274.709
C347.596 258.284 357.543 238.838 362.693 217.91
C367.843 196.982 368.057 175.14 363.317 154.116
L227.692 184.688
L333.641 274.709
z
" style="fill:#482626;opacity:0.5;stroke:#482626;stroke-linejoin:miter;stroke-width:0.3;"/>
   </g>
   <g id="patch_6">
    <path d="
M363.317 154.116
C356.379 123.335 339.164 95.8141 314.521 76.1078
C289.878 56.4014 259.245 45.6595 227.692 45.6595
L227.692 184.688
L363.317 154.116
z
" style="fill:#4c2a00;opacity:0.5;stroke:#4c2a00;stroke-linejoin:miter;stroke-width:0.3;"/>
   </g>
   <g id="patch_7">
    <path d="
M230.131 28.9803
C228.992 28.9803 227.853 28.9943 226.715 29.0223
C225.577 29.0502 224.439 29.0922 223.301 29.1481
L230.131 168.009
L230.131 28.9803
z
" style="fill:#9acd32;stroke:#000000;stroke-linejoin:miter;stroke-width:0.3;"/>
   </g>
   <g id="patch_8">
    <path d="
M223.643 43.0468
C189.143 44.7436 156.483 59.2384 132.079 83.6845
C107.676 108.13 93.2371 140.815 91.6 175.318
C89.9628 209.821 101.242 243.726 123.221 270.373
C145.201 297.02 176.341 314.542 210.526 319.498
L230.472 181.908
L223.643 43.0468
z
" style="fill:#ffd700;stroke:#000000;stroke-linejoin:miter;stroke-width:0.3;"/>
   </g>
   <g id="patch_9">
    <path d="
M215.44 332.503
C238.734 335.88 262.509 333.287 284.527 324.967
C306.546 316.648 326.095 302.871 341.336 284.934
L235.386 194.913
L215.44 332.503
z
" style="fill:#6495ed;stroke:#000000;stroke-linejoin:miter;stroke-width:0.3;"/>
   </g>
   <g id="patch_10">
    <path d="
M336.422 271.928
C350.377 255.504 360.323 236.057 365.473 215.129
C370.623 194.202 370.837 172.36 366.098 151.335
L230.472 181.908
L336.422 271.928
z
" style="fill:#f08080;stroke:#000000;stroke-linejoin:miter;stroke-width:0.3;"/>
   </g>
   <g id="patch_11">
    <path d="
M366.098 151.335
C359.159 120.554 341.944 93.0336 317.301 73.3272
C292.658 53.6208 262.026 42.879 230.472 42.879
L230.472 181.908
L366.098 151.335
z
" style="fill:#ff8c00;stroke:#000000;stroke-linejoin:miter;stroke-width:0.3;"/>
   </g>
   <g id="text_1">
    <!-- linux-32 -->
    <defs>
     <path d="
M15.3281 52.8281
L15.3281 19.3438
Q15.3281 15.4844 15.8906 12.8906
Q16.4531 10.2969 17.7188 8.70312
Q19 7.125 21.0625 6.46875
Q23.1406 5.8125 26.2188 5.8125
Q29.3438 5.8125 31.8594 6.90625
Q34.375 8.01562 36.1562 10.0781
Q37.9375 12.1562 38.9062 15.2031
Q39.8906 18.2656 39.8906 22.2188
L39.8906 52.8281
L48.6875 52.8281
L48.6875 11.2812
Q48.6875 9.625 48.7031 7.78125
Q48.7344 5.95312 48.7812 4.3125
Q48.8281 2.6875 48.875 1.51562
Q48.9219 0.34375 48.9688 0
L40.6719 0
Q40.625 0.25 40.5781 1.3125
Q40.5312 2.39062 40.4531 3.78125
Q40.375 5.17188 40.3281 6.60938
Q40.2812 8.0625 40.2812 9.03125
L40.1406 9.03125
Q38.875 6.73438 37.3594 4.875
Q35.8438 3.03125 33.8438 1.73438
Q31.8438 0.4375 29.25 -0.265625
Q26.6562 -0.984375 23.25 -0.984375
Q18.8438 -0.984375 15.6719 0.09375
Q12.5 1.17188 10.4531 3.42188
Q8.40625 5.67188 7.45312 9.1875
Q6.5 12.7031 6.5 17.625
L6.5 52.8281
z
" id="LiberationSans-75"/>
     <path d="
M39.1094 0
L24.9062 21.6875
L10.5938 0
L1.125 0
L19.9219 27.1562
L2 52.8281
L11.7188 52.8281
L24.9062 32.2812
L37.9844 52.8281
L47.7969 52.8281
L29.8906 27.25
L48.9219 0
z
" id="LiberationSans-78"/>
     <path d="
M4.4375 22.6562
L4.4375 30.4688
L28.8594 30.4688
L28.8594 22.6562
z
" id="LiberationSans-2d"/>
     <path d="
M6.6875 64.0625
L6.6875 72.4688
L15.4844 72.4688
L15.4844 64.0625
z

M6.6875 0
L6.6875 52.8281
L15.4844 52.8281
L15.4844 0
z
" id="LiberationSans-69"/>
     <path d="
M40.2812 0
L40.2812 33.5
Q40.2812 37.3594 39.7188 39.9375
Q39.1562 42.5312 37.8906 44.1094
Q36.625 45.7031 34.5469 46.3594
Q32.4688 47.0156 29.3906 47.0156
Q26.2656 47.0156 23.75 45.9219
Q21.2344 44.8281 19.4531 42.75
Q17.6719 40.6719 16.6875 37.625
Q15.7188 34.5781 15.7188 30.6094
L15.7188 0
L6.9375 0
L6.9375 41.5469
Q6.9375 43.2188 6.90625 45.0469
Q6.89062 46.875 6.82812 48.5
Q6.78125 50.1406 6.73438 51.3125
Q6.6875 52.4844 6.64062 52.8281
L14.9375 52.8281
Q14.9844 52.5938 15.0312 51.5156
Q15.0938 50.4375 15.1562 49.0469
Q15.2344 47.6562 15.2812 46.2188
Q15.3281 44.7812 15.3281 43.7969
L15.4844 43.7969
Q16.75 46.0938 18.2656 47.9531
Q19.7812 49.8125 21.7812 51.0938
Q23.7812 52.3906 26.3594 53.0938
Q28.9531 53.8125 32.375 53.8125
Q36.7656 53.8125 39.9375 52.7344
Q43.1094 51.6562 45.1562 49.4062
Q47.2188 47.1719 48.1719 43.625
Q49.125 40.0938 49.125 35.2031
L49.125 0
z
" id="LiberationSans-6e"/>
     <path d="
M51.2188 19
Q51.2188 14.2656 49.6719 10.5469
Q48.1406 6.84375 45.1875 4.26562
Q42.2344 1.70312 37.8594 0.359375
Q33.5 -0.984375 27.875 -0.984375
Q21.4844 -0.984375 17.1094 0.609375
Q12.75 2.20312 9.90625 4.8125
Q7.07812 7.42188 5.65625 10.7656
Q4.25 14.1094 3.8125 17.6719
L12.8906 18.5
Q13.2812 15.7656 14.3281 13.5156
Q15.375 11.2812 17.1875 9.67188
Q19 8.0625 21.625 7.17188
Q24.2656 6.29688 27.875 6.29688
Q34.5156 6.29688 38.2969 9.5625
Q42.0938 12.8438 42.0938 19.2812
Q42.0938 23.0938 40.4062 25.4062
Q38.7188 27.7344 36.2031 29.0312
Q33.6875 30.3281 30.7344 30.7656
Q27.7812 31.2031 25.2969 31.2031
L20.3125 31.2031
L20.3125 38.8125
L25.0938 38.8125
Q27.5938 38.8125 30.2656 39.3281
Q32.9531 39.8438 35.1719 41.1875
Q37.4062 42.5312 38.8438 44.8281
Q40.2812 47.125 40.2812 50.6875
Q40.2812 56.2031 37.0312 59.3906
Q33.7969 62.5938 27.3906 62.5938
Q21.5781 62.5938 17.9844 59.6094
Q14.4062 56.6406 13.8125 51.2188
L4.98438 51.9062
Q5.51562 56.4531 7.46875 59.8125
Q9.42188 63.1875 12.4219 65.4062
Q15.4375 67.625 19.2812 68.7188
Q23.1406 69.8281 27.4844 69.8281
Q33.25 69.8281 37.3906 68.375
Q41.5469 66.9375 44.1875 64.4688
Q46.8281 62.0156 48.0625 58.6875
Q49.3125 55.375 49.3125 51.6094
Q49.3125 48.5781 48.4844 45.9375
Q47.6562 43.3125 45.8906 41.2031
Q44.1406 39.1094 41.4219 37.5938
Q38.7188 36.0781 34.9062 35.2969
L34.9062 35.1094
Q39.0625 34.6719 42.1406 33.2188
Q45.2188 31.7812 47.2188 29.625
Q49.2188 27.4844 50.2188 24.75
Q51.2188 22.0156 51.2188 19" id="LiberationSans-33"/>
     <path d="
M5.03125 0
L5.03125 6.20312
Q7.51562 11.9219 11.1094 16.2812
Q14.7031 20.6562 18.6562 24.1875
Q22.6094 27.7344 26.4844 30.7656
Q30.375 33.7969 33.5 36.8125
Q36.625 39.8438 38.5469 43.1562
Q40.4844 46.4844 40.4844 50.6875
Q40.4844 53.6094 39.5938 55.8281
Q38.7188 58.0625 37.0625 59.5625
Q35.4062 61.0781 33.0781 61.8281
Q30.7656 62.5938 27.9375 62.5938
Q25.2969 62.5938 22.9688 61.8594
Q20.6562 61.1406 18.8438 59.6719
Q17.0469 58.2031 15.8906 56.0312
Q14.75 53.8594 14.4062 50.9844
L5.42188 51.8125
Q5.85938 55.5156 7.46875 58.7812
Q9.07812 62.0625 11.9062 64.5312
Q14.75 67 18.7188 68.4062
Q22.7031 69.8281 27.9375 69.8281
Q33.0625 69.8281 37.0625 68.6094
Q41.0625 67.3906 43.8125 64.9844
Q46.5781 62.5938 48.0469 59.0781
Q49.5156 55.5625 49.5156 50.9844
Q49.5156 47.5156 48.2656 44.3906
Q47.0156 41.2656 44.9375 38.4219
Q42.875 35.5938 40.1406 32.9531
Q37.4062 30.3281 34.4219 27.8125
Q31.4531 25.2969 28.4219 22.8281
Q25.3906 20.3594 22.7188 17.8594
Q20.0625 15.375 17.9688 12.8125
Q15.875 10.25 14.7031 7.46875
L50.5938 7.46875
L50.5938 0
z
" id="LiberationSans-32"/>
     <path d="
M6.73438 0
L6.73438 72.4688
L15.5312 72.4688
L15.5312 0
z
" id="LiberationSans-6c"/>
    </defs>
    <g style="fill:#fffff0;" transform="translate(168.841782866 19.5196875)scale(0.17 -0.17)">
     <use xlink:href="#LiberationSans-6c"/>
     <use x="22.216796875" xlink:href="#LiberationSans-69"/>
     <use x="44.43359375" xlink:href="#LiberationSans-6e"/>
     <use x="100.048828125" xlink:href="#LiberationSans-75"/>
     <use x="155.6640625" xlink:href="#LiberationSans-78"/>
     <use x="205.6640625" xlink:href="#LiberationSans-2d"/>
     <use x="238.96484375" xlink:href="#LiberationSans-33"/>
     <use x="294.580078125" xlink:href="#LiberationSans-32"/>
    </g>
   </g>
   <g id="text_2">
    <!-- linux-64 -->
    <defs>
     <path d="
M51.2188 22.5156
Q51.2188 17.3281 49.7812 13
Q48.3438 8.6875 45.5312 5.57812
Q42.7188 2.48438 38.5625 0.75
Q34.4219 -0.984375 29 -0.984375
Q23 -0.984375 18.5 1.3125
Q14.0156 3.60938 11.0312 7.92188
Q8.0625 12.25 6.5625 18.5312
Q5.07812 24.8125 5.07812 32.8125
Q5.07812 42 6.76562 48.9219
Q8.45312 55.8594 11.625 60.5
Q14.7969 65.1406 19.3594 67.4844
Q23.9219 69.8281 29.6875 69.8281
Q33.2031 69.8281 36.2812 69.0938
Q39.3594 68.3594 41.875 66.7188
Q44.3906 65.0938 46.2812 62.4062
Q48.1875 59.7188 49.3125 55.8125
L40.9219 54.2969
Q39.5469 58.7344 36.5469 60.7188
Q33.5469 62.7031 29.5938 62.7031
Q25.9844 62.7031 23.0469 60.9844
Q20.125 59.2812 18.0625 55.875
Q16.0156 52.4844 14.9062 47.3594
Q13.8125 42.2344 13.8125 35.4062
Q16.2188 39.8438 20.5625 42.1562
Q24.9062 44.4844 30.5156 44.4844
Q35.2031 44.4844 39.0156 42.9688
Q42.8281 41.4531 45.5312 38.5938
Q48.25 35.75 49.7344 31.6719
Q51.2188 27.5938 51.2188 22.5156
M42.2812 22.125
Q42.2812 25.6875 41.4062 28.5625
Q40.5312 31.4531 38.7656 33.4688
Q37.0156 35.5 34.4219 36.5938
Q31.8438 37.7031 28.4219 37.7031
Q26.0312 37.7031 23.5781 36.9844
Q21.1406 36.2812 19.1562 34.6875
Q17.1875 33.1094 15.9375 30.5156
Q14.7031 27.9375 14.7031 24.2188
Q14.7031 20.4062 15.6719 17.1094
Q16.6562 13.8125 18.4844 11.375
Q20.3125 8.9375 22.8906 7.51562
Q25.4844 6.10938 28.7188 6.10938
Q31.8906 6.10938 34.4062 7.20312
Q36.9219 8.29688 38.6719 10.375
Q40.4375 12.4531 41.3594 15.4219
Q42.2812 18.4062 42.2812 22.125" id="LiberationSans-36"/>
     <path d="
M43.0156 15.5781
L43.0156 0
L34.7188 0
L34.7188 15.5781
L2.29688 15.5781
L2.29688 22.4062
L33.7969 68.7969
L43.0156 68.7969
L43.0156 22.5156
L52.6875 22.5156
L52.6875 15.5781
z

M34.7188 58.8906
Q34.625 58.6406 34.2344 57.9375
Q33.8438 57.2344 33.3438 56.3438
Q32.8594 55.4688 32.3438 54.5625
Q31.8438 53.6562 31.4531 53.0781
L13.8125 27.0938
Q13.5781 26.7031 13.1094 26.0625
Q12.6406 25.4375 12.1562 24.7812
Q11.6719 24.125 11.1719 23.4844
Q10.6875 22.8594 10.4062 22.5156
L34.7188 22.5156
z
" id="LiberationSans-34"/>
    </defs>
    <g style="fill:#fffff0;" transform="translate(19.8250631547 179.055324216)scale(0.17 -0.17)">
     <use xlink:href="#LiberationSans-6c"/>
     <use x="22.216796875" xlink:href="#LiberationSans-69"/>
     <use x="44.43359375" xlink:href="#LiberationSans-6e"/>
     <use x="100.048828125" xlink:href="#LiberationSans-75"/>
     <use x="155.6640625" xlink:href="#LiberationSans-78"/>
     <use x="205.6640625" xlink:href="#LiberationSans-2d"/>
     <use x="238.96484375" xlink:href="#LiberationSans-36"/>
     <use x="294.580078125" xlink:href="#LiberationSans-34"/>
    </g>
   </g>
   <g id="text_3">
    <!-- osx-64 -->
    <defs>
     <path d="
M46.3906 14.5938
Q46.3906 10.8906 44.9375 7.98438
Q43.5 5.07812 40.7656 3.09375
Q38.0312 1.125 34.0469 0.0625
Q30.0781 -0.984375 24.9531 -0.984375
Q20.3594 -0.984375 16.6719 -0.265625
Q12.9844 0.4375 10.2031 2
Q7.42188 3.5625 5.53125 6.125
Q3.65625 8.6875 2.78125 12.4062
L10.5469 13.9219
Q11.6719 9.67188 15.1875 7.6875
Q18.7031 5.71875 24.9531 5.71875
Q27.7812 5.71875 30.1406 6.10938
Q32.5156 6.5 34.2188 7.45312
Q35.9375 8.40625 36.8906 9.98438
Q37.8438 11.5781 37.8438 13.9219
Q37.8438 16.3125 36.7188 17.8438
Q35.5938 19.3906 33.5938 20.4062
Q31.5938 21.4375 28.7344 22.1875
Q25.875 22.9531 22.4688 23.875
Q19.2812 24.7031 16.1562 25.7344
Q13.0312 26.7656 10.5156 28.4375
Q8.01562 30.125 6.45312 32.6094
Q4.89062 35.1094 4.89062 38.875
Q4.89062 46.0938 10.0312 49.875
Q15.1875 53.6562 25.0469 53.6562
Q33.7969 53.6562 38.9375 50.5781
Q44.0938 47.5156 45.4531 40.7188
L37.5469 39.75
Q37.1094 41.7969 35.9375 43.1875
Q34.7656 44.5781 33.1094 45.4375
Q31.4531 46.2969 29.375 46.6562
Q27.2969 47.0156 25.0469 47.0156
Q19.0938 47.0156 16.25 45.2031
Q13.4219 43.4062 13.4219 39.75
Q13.4219 37.5938 14.4688 36.2031
Q15.5312 34.8125 17.4062 33.8594
Q19.2812 32.9062 21.9219 32.2031
Q24.5625 31.5 27.7344 30.7188
Q29.8281 30.1719 32.0312 29.5625
Q34.2344 28.9531 36.2969 28.0938
Q38.375 27.25 40.2031 26.0938
Q42.0469 24.9531 43.4062 23.3438
Q44.7812 21.7344 45.5781 19.5781
Q46.3906 17.4375 46.3906 14.5938" id="LiberationSans-73"/>
     <path d="
M51.4219 26.4688
Q51.4219 12.5938 45.3125 5.79688
Q39.2031 -0.984375 27.5938 -0.984375
Q22.0781 -0.984375 17.7188 0.671875
Q13.375 2.34375 10.375 5.76562
Q7.375 9.1875 5.78125 14.3281
Q4.20312 19.4844 4.20312 26.4688
Q4.20312 53.8125 27.875 53.8125
Q34.0312 53.8125 38.5 52.0938
Q42.9688 50.3906 45.8281 46.9688
Q48.6875 43.5625 50.0469 38.4219
Q51.4219 33.2969 51.4219 26.4688
M42.1875 26.4688
Q42.1875 32.625 41.2344 36.625
Q40.2812 40.625 38.4531 43.0156
Q36.625 45.4062 33.9844 46.3594
Q31.3438 47.3125 28.0312 47.3125
Q24.6562 47.3125 21.9375 46.3125
Q19.2344 45.3125 17.3281 42.8906
Q15.4375 40.4844 14.4219 36.4688
Q13.4219 32.4688 13.4219 26.4688
Q13.4219 20.3125 14.5 16.2812
Q15.5781 12.25 17.4531 9.85938
Q19.3438 7.46875 21.9062 6.48438
Q24.4688 5.51562 27.4844 5.51562
Q30.8594 5.51562 33.5938 6.46875
Q36.3281 7.42188 38.2344 9.8125
Q40.1406 12.2031 41.1562 16.25
Q42.1875 20.3125 42.1875 26.4688" id="LiberationSans-6f"/>
    </defs>
    <g style="fill:#fffff0;" transform="translate(289.441366152 342.368861461)scale(0.17 -0.17)">
     <use xlink:href="#LiberationSans-6f"/>
     <use x="55.615234375" xlink:href="#LiberationSans-73"/>
     <use x="105.615234375" xlink:href="#LiberationSans-78"/>
     <use x="155.615234375" xlink:href="#LiberationSans-2d"/>
     <use x="188.916015625" xlink:href="#LiberationSans-36"/>
     <use x="244.53125" xlink:href="#LiberationSans-34"/>
    </g>
   </g>
   <g id="text_4">
    <!-- win-32 -->
    <defs>
     <path d="
M57.3281 0
L47.125 0
L38.6719 34.0781
Q38.2812 35.4062 37.8594 37.3594
Q37.4531 39.3125 37.0625 41.1562
Q36.5781 43.3125 36.1406 45.6094
Q35.6875 43.4062 35.2031 41.2656
Q34.8125 39.4062 34.3438 37.4062
Q33.8906 35.4062 33.5 33.8906
L24.8125 0
L14.6562 0
L-0.140625 52.8281
L8.54688 52.8281
L17.4844 16.9375
Q17.8281 15.8281 18.1562 14.1875
Q18.5 12.5469 18.8438 10.9844
Q19.1875 9.1875 19.5781 7.28125
Q19.9688 9.125 20.4062 10.8906
Q20.7969 12.4062 21.1875 13.9688
Q21.5781 15.5312 21.875 16.5469
L31.4531 52.8281
L40.875 52.8281
L50.0938 16.5469
Q50.4375 15.2812 50.8281 13.6719
Q51.2188 12.0625 51.5625 10.6406
Q51.9531 8.98438 52.3438 7.28125
Q52.7344 9.125 53.125 10.8906
Q53.4688 12.4062 53.8281 14.0312
Q54.2031 15.6719 54.5469 16.9375
L63.875 52.8281
L72.4688 52.8281
z
" id="LiberationSans-77"/>
    </defs>
    <g style="fill:#fffff0;" transform="translate(378.973384406 222.847742093)scale(0.17 -0.17)">
     <use xlink:href="#LiberationSans-77"/>
     <use x="72.216796875" xlink:href="#LiberationSans-69"/>
     <use x="94.43359375" xlink:href="#LiberationSans-6e"/>
     <use x="150.048828125" xlink:href="#LiberationSans-2d"/>
     <use x="183.349609375" xlink:href="#LiberationSans-33"/>
     <use x="238.96484375" xlink:href="#LiberationSans-32"/>
    </g>
   </g>
   <g id="text_5">
    <!-- win-64 -->
    <g style="fill:#fffff0;" transform="translate(325.984114751 66.865256817)scale(0.17 -0.17)">
     <use xlink:href="#LiberationSans-77"/>
     <use x="72.216796875" xlink:href="#LiberationSans-69"/>
     <use x="94.43359375" xlink:href="#LiberationSans-6e"/>
     <use x="150.048828125" xlink:href="#LiberationSans-2d"/>
     <use x="183.349609375" xlink:href="#LiberationSans-36"/>
     <use x="238.96484375" xlink:href="#LiberationSans-34"/>
    </g>
   </g>
   <g id="text_6">
    <!-- 3840: linux-64 -->
    <defs>
     <path id="LiberationSans-20"/>
     <path d="
M51.7031 34.4219
Q51.7031 24.5156 49.8281 17.75
Q47.9531 10.9844 44.7031 6.8125
Q41.4531 2.64062 37.0625 0.828125
Q32.6719 -0.984375 27.6875 -0.984375
Q22.6562 -0.984375 18.3125 0.828125
Q13.9688 2.64062 10.7656 6.78125
Q7.5625 10.9375 5.73438 17.7031
Q3.90625 24.4688 3.90625 34.4219
Q3.90625 44.8281 5.73438 51.6406
Q7.5625 58.4531 10.7812 62.5
Q14.0156 66.5469 18.4062 68.1875
Q22.7969 69.8281 27.9844 69.8281
Q32.9062 69.8281 37.2188 68.1875
Q41.5469 66.5469 44.7656 62.5
Q48 58.4531 49.8438 51.6406
Q51.7031 44.8281 51.7031 34.4219
M42.7812 34.4219
Q42.7812 42.625 41.7969 48.0625
Q40.8281 53.5156 38.9219 56.7656
Q37.0156 60.0156 34.25 61.3594
Q31.5 62.7031 27.9844 62.7031
Q24.2656 62.7031 21.4375 61.3281
Q18.6094 59.9688 16.6719 56.7188
Q14.75 53.4688 13.7656 48.0156
Q12.7969 42.5781 12.7969 34.4219
Q12.7969 26.5156 13.7969 21.0938
Q14.7969 15.6719 16.7188 12.375
Q18.6562 9.07812 21.4375 7.64062
Q24.2188 6.20312 27.7812 6.20312
Q31.25 6.20312 34.0312 7.64062
Q36.8125 9.07812 38.7344 12.375
Q40.6719 15.6719 41.7188 21.0938
Q42.7812 26.5156 42.7812 34.4219" id="LiberationSans-30"/>
     <path d="
M9.125 42.7188
L9.125 52.8281
L18.6562 52.8281
L18.6562 42.7188
z

M9.125 0
L9.125 10.1094
L18.6562 10.1094
L18.6562 0
z
" id="LiberationSans-3a"/>
     <path d="
M51.2656 19.1875
Q51.2656 14.7969 49.875 11.1094
Q48.4844 7.42188 45.625 4.73438
Q42.7812 2.04688 38.3281 0.53125
Q33.8906 -0.984375 27.8281 -0.984375
Q21.7812 -0.984375 17.3594 0.53125
Q12.9375 2.04688 10.0312 4.70312
Q7.125 7.375 5.73438 11.0625
Q4.34375 14.75 4.34375 19.0938
Q4.34375 22.8594 5.48438 25.7812
Q6.64062 28.7188 8.5625 30.8281
Q10.5 32.9531 12.9688 34.25
Q15.4375 35.5469 18.0625 35.9844
L18.0625 36.1875
Q15.1875 36.8594 12.9062 38.375
Q10.6406 39.8906 9.09375 42.0156
Q7.5625 44.1406 6.75 46.7188
Q5.95312 49.3125 5.95312 52.2031
Q5.95312 55.8125 7.34375 59
Q8.73438 62.2031 11.4688 64.625
Q14.2031 67.0469 18.25 68.4375
Q22.3125 69.8281 27.6406 69.8281
Q33.25 69.8281 37.375 68.4062
Q41.5 67 44.2031 64.5781
Q46.9219 62.1562 48.2344 58.9375
Q49.5625 55.7188 49.5625 52.0938
Q49.5625 49.2656 48.75 46.6719
Q47.9531 44.0938 46.4062 41.9688
Q44.875 39.8438 42.5938 38.3438
Q40.3281 36.8594 37.3594 36.2812
L37.3594 36.0781
Q40.3281 35.5938 42.8594 34.2969
Q45.4062 33.0156 47.2656 30.8906
Q49.125 28.7656 50.1875 25.8281
Q51.2656 22.9062 51.2656 19.1875
M40.4375 51.6094
Q40.4375 54.2031 39.7656 56.3438
Q39.1094 58.5 37.5938 60.0312
Q36.0781 61.5781 33.6406 62.4219
Q31.2031 63.2812 27.6406 63.2812
Q24.1719 63.2812 21.7812 62.4219
Q19.3906 61.5781 17.8438 60.0312
Q16.3125 58.5 15.625 56.3438
Q14.9375 54.2031 14.9375 51.6094
Q14.9375 49.5625 15.4688 47.4062
Q16.0156 45.2656 17.4219 43.5
Q18.8438 41.75 21.3281 40.625
Q23.8281 39.5 27.7344 39.5
Q31.8906 39.5 34.4062 40.625
Q36.9219 41.75 38.25 43.5
Q39.5938 45.2656 40.0156 47.4062
Q40.4375 49.5625 40.4375 51.6094
M42.1406 20.0156
Q42.1406 22.5156 41.4531 24.8281
Q40.7656 27.1562 39.1094 28.9375
Q37.4531 30.7188 34.6406 31.8125
Q31.8438 32.9062 27.6406 32.9062
Q23.7812 32.9062 21.0625 31.8125
Q18.3594 30.7188 16.6719 28.9062
Q14.9844 27.0938 14.2031 24.7188
Q13.4219 22.3594 13.4219 19.8281
Q13.4219 16.6562 14.2031 14.0312
Q14.9844 11.4219 16.6875 9.54688
Q18.4062 7.67188 21.1875 6.64062
Q23.9688 5.60938 27.9375 5.60938
Q31.9375 5.60938 34.6719 6.64062
Q37.4062 7.67188 39.0625 9.54688
Q40.7188 11.4219 41.4219 14.0781
Q42.1406 16.75 42.1406 20.0156" id="LiberationSans-38"/>
    </defs>
    <g style="fill:#fffff0;" transform="translate(449.136 90.8746683243)scale(0.17 -0.17)">
     <use xlink:href="#LiberationSans-33"/>
     <use x="55.615234375" xlink:href="#LiberationSans-38"/>
     <use x="111.23046875" xlink:href="#LiberationSans-34"/>
     <use x="166.845703125" xlink:href="#LiberationSans-30"/>
     <use x="222.4609375" xlink:href="#LiberationSans-3a"/>
     <use x="250.244140625" xlink:href="#LiberationSans-20"/>
     <use x="278.02734375" xlink:href="#LiberationSans-6c"/>
     <use x="300.244140625" xlink:href="#LiberationSans-69"/>
     <use x="322.4609375" xlink:href="#LiberationSans-6e"/>
     <use x="378.076171875" xlink:href="#LiberationSans-75"/>
     <use x="433.69140625" xlink:href="#LiberationSans-78"/>
     <use x="483.69140625" xlink:href="#LiberationSans-2d"/>
     <use x="516.9921875" xlink:href="#LiberationSans-36"/>
     <use x="572.607421875" xlink:href="#LiberationSans-34"/>
    </g>
    <!--     64: linux-32 -->
    <g style="fill:#fffff0;" transform="translate(449.136 109.185793324)scale(0.17 -0.17)">
     <use xlink:href="#LiberationSans-20"/>
     <use x="27.783203125" xlink:href="#LiberationSans-20"/>
     <use x="55.56640625" xlink:href="#LiberationSans-20"/>
     <use x="83.349609375" xlink:href="#LiberationSans-20"/>
     <use x="111.1328125" xlink:href="#LiberationSans-36"/>
     <use x="166.748046875" xlink:href="#LiberationSans-34"/>
     <use x="222.36328125" xlink:href="#LiberationSans-3a"/>
     <use x="250.146484375" xlink:href="#LiberationSans-20"/>
     <use x="277.9296875" xlink:href="#LiberationSans-6c"/>
     <use x="300.146484375" xlink:href="#LiberationSans-69"/>
     <use x="322.36328125" xlink:href="#LiberationSans-6e"/>
     <use x="377.978515625" xlink:href="#LiberationSans-75"/>
     <use x="433.59375" xlink:href="#LiberationSans-78"/>
     <use x="483.59375" xlink:href="#LiberationSans-2d"/>
     <use x="516.89453125" xlink:href="#LiberationSans-33"/>
     <use x="572.509765625" xlink:href="#LiberationSans-32"/>
    </g>
    <!-- 1316: oxs-64 -->
    <defs>
     <path d="
M7.625 0
L7.625 7.46875
L25.1406 7.46875
L25.1406 60.4062
L9.625 49.3125
L9.625 57.625
L25.875 68.7969
L33.9844 68.7969
L33.9844 7.46875
L50.7344 7.46875
L50.7344 0
z
" id="LiberationSans-31"/>
    </defs>
    <g style="fill:#fffff0;" transform="translate(449.136 127.496918324)scale(0.17 -0.17)">
     <use xlink:href="#LiberationSans-31"/>
     <use x="55.615234375" xlink:href="#LiberationSans-33"/>
     <use x="111.23046875" xlink:href="#LiberationSans-31"/>
     <use x="166.845703125" xlink:href="#LiberationSans-36"/>
     <use x="222.4609375" xlink:href="#LiberationSans-3a"/>
     <use x="250.244140625" xlink:href="#LiberationSans-20"/>
     <use x="278.02734375" xlink:href="#LiberationSans-6f"/>
     <use x="333.642578125" xlink:href="#LiberationSans-78"/>
     <use x="383.642578125" xlink:href="#LiberationSans-73"/>
     <use x="433.642578125" xlink:href="#LiberationSans-2d"/>
     <use x="466.943359375" xlink:href="#LiberationSans-36"/>
     <use x="522.55859375" xlink:href="#LiberationSans-34"/>
    </g>
    <!-- 1206: win-32 -->
    <g style="fill:#fffff0;" transform="translate(449.136 145.808043324)scale(0.17 -0.17)">
     <use xlink:href="#LiberationSans-31"/>
     <use x="55.615234375" xlink:href="#LiberationSans-32"/>
     <use x="111.23046875" xlink:href="#LiberationSans-30"/>
     <use x="166.845703125" xlink:href="#LiberationSans-36"/>
     <use x="222.4609375" xlink:href="#LiberationSans-3a"/>
     <use x="250.244140625" xlink:href="#LiberationSans-20"/>
     <use x="278.02734375" xlink:href="#LiberationSans-77"/>
     <use x="350.244140625" xlink:href="#LiberationSans-69"/>
     <use x="372.4609375" xlink:href="#LiberationSans-6e"/>
     <use x="428.076171875" xlink:href="#LiberationSans-2d"/>
     <use x="461.376953125" xlink:href="#LiberationSans-33"/>
     <use x="516.9921875" xlink:href="#LiberationSans-32"/>
    </g>
    <!-- 1757: win-64 -->
    <defs>
     <path d="
M50.5938 61.6719
Q45.4062 53.7656 41.0625 46.4531
Q36.7188 39.1562 33.5938 31.75
Q30.4688 24.3594 28.7344 16.5781
Q27 8.79688 27 0
L17.8281 0
Q17.8281 8.25 19.7812 16.1875
Q21.7344 24.125 25.0469 31.7656
Q28.375 39.4062 32.7656 46.7812
Q37.1562 54.1562 42.0938 61.3281
L5.125 61.3281
L5.125 68.7969
L50.5938 68.7969
z
" id="LiberationSans-37"/>
     <path d="
M51.4219 22.4062
Q51.4219 17.2344 49.8594 12.9375
Q48.2969 8.64062 45.2188 5.53125
Q42.1406 2.4375 37.5781 0.71875
Q33.0156 -0.984375 27 -0.984375
Q21.5781 -0.984375 17.5469 0.28125
Q13.5312 1.5625 10.7344 3.78125
Q7.95312 6 6.3125 8.98438
Q4.6875 11.9688 4 15.375
L12.8906 16.4062
Q13.4219 14.4531 14.3906 12.625
Q15.375 10.7969 17.0625 9.34375
Q18.75 7.90625 21.2188 7.04688
Q23.6875 6.20312 27.2031 6.20312
Q30.6094 6.20312 33.3906 7.25
Q36.1875 8.29688 38.1562 10.3438
Q40.1406 12.4062 41.2031 15.375
Q42.2812 18.3594 42.2812 22.2188
Q42.2812 25.3906 41.25 28.0469
Q40.2344 30.7188 38.3281 32.6406
Q36.4219 34.5781 33.6562 35.6406
Q30.9062 36.7188 27.3906 36.7188
Q25.2031 36.7188 23.3438 36.3281
Q21.4844 35.9375 19.8906 35.25
Q18.3125 34.5781 17.0156 33.6719
Q15.7188 32.7656 14.5938 31.7812
L6 31.7812
L8.29688 68.7969
L47.4062 68.7969
L47.4062 61.3281
L16.3125 61.3281
L14.9844 39.5
Q17.3281 41.3125 20.8438 42.5938
Q24.3594 43.8906 29.2031 43.8906
Q34.3281 43.8906 38.4219 42.3281
Q42.5312 40.7656 45.4062 37.9062
Q48.2969 35.0625 49.8594 31.1094
Q51.4219 27.1562 51.4219 22.4062" id="LiberationSans-35"/>
    </defs>
    <g style="fill:#fffff0;" transform="translate(449.136 164.119168324)scale(0.17 -0.17)">
     <use xlink:href="#LiberationSans-31"/>
     <use x="55.615234375" xlink:href="#LiberationSans-37"/>
     <use x="111.23046875" xlink:href="#LiberationSans-35"/>
     <use x="166.845703125" xlink:href="#LiberationSans-37"/>
     <use x="222.4609375" xlink:href="#LiberationSans-3a"/>
     <use x="250.244140625" xlink:href="#LiberationSans-20"/>
     <use x="278.02734375" xlink:href="#LiberationSans-77"/>
     <use x="350.244140625" xlink:href="#LiberationSans-69"/>
     <use x="372.4609375" xlink:href="#LiberationSans-6e"/>
     <use x="428.076171875" xlink:href="#LiberationSans-2d"/>
     <use x="461.376953125" xlink:href="#LiberationSans-36"/>
     <use x="516.9921875" xlink:href="#LiberationSans-34"/>
    </g>
    <!-- 8183: Total -->
    <defs>
     <path d="
M35.1562 61.1875
L35.1562 0
L25.875 0
L25.875 61.1875
L2.25 61.1875
L2.25 68.7969
L58.7969 68.7969
L58.7969 61.1875
z
" id="LiberationSans-54"/>
     <path d="
M20.2188 -0.984375
Q12.25 -0.984375 8.25 3.21875
Q4.25 7.42188 4.25 14.75
Q4.25 19.9688 6.21875 23.3125
Q8.20312 26.6562 11.3906 28.5625
Q14.5938 30.4688 18.6875 31.2031
Q22.7969 31.9375 27.0469 32.0312
L38.9219 32.2344
L38.9219 35.1094
Q38.9219 38.375 38.2344 40.6719
Q37.5469 42.9688 36.125 44.375
Q34.7188 45.7969 32.5938 46.4531
Q30.4688 47.125 27.5938 47.125
Q25.0469 47.125 23 46.75
Q20.9531 46.3906 19.4375 45.4375
Q17.9219 44.4844 16.9844 42.8438
Q16.0625 41.2188 15.7656 38.7188
L6.59375 39.5469
Q7.07812 42.6719 8.4375 45.2812
Q9.8125 47.9062 12.3281 49.7969
Q14.8438 51.7031 18.625 52.75
Q22.4062 53.8125 27.7812 53.8125
Q37.75 53.8125 42.7656 49.2344
Q47.7969 44.6719 47.7969 36.0312
L47.7969 13.2812
Q47.7969 9.375 48.8281 7.39062
Q49.8594 5.42188 52.7344 5.42188
Q53.4688 5.42188 54.2031 5.51562
Q54.9375 5.60938 55.6094 5.76562
L55.6094 0.296875
Q53.9531 -0.09375 52.3125 -0.28125
Q50.6875 -0.484375 48.8281 -0.484375
Q46.3438 -0.484375 44.5625 0.171875
Q42.7812 0.828125 41.6562 2.17188
Q40.5312 3.51562 39.9375 5.48438
Q39.3594 7.46875 39.2031 10.1094
L38.9219 10.1094
Q37.5 7.5625 35.8125 5.51562
Q34.125 3.46875 31.875 2.03125
Q29.6406 0.59375 26.7812 -0.1875
Q23.9219 -0.984375 20.2188 -0.984375
M22.2188 5.60938
Q26.4219 5.60938 29.5625 7.14062
Q32.7188 8.6875 34.7812 11.0781
Q36.8594 13.4844 37.8906 16.3125
Q38.9219 19.1406 38.9219 21.7344
L38.9219 26.0781
L29.2969 25.875
Q26.0781 25.8281 23.1719 25.4062
Q20.2656 25 18.0625 23.7812
Q15.875 22.5625 14.5781 20.3594
Q13.2812 18.1719 13.2812 14.5938
Q13.2812 10.2969 15.5938 7.95312
Q17.9219 5.60938 22.2188 5.60938" id="LiberationSans-61"/>
     <path d="
M27.0469 0.390625
Q25.0469 -0.140625 22.9688 -0.453125
Q20.9062 -0.78125 18.1719 -0.78125
Q7.625 -0.78125 7.625 11.1875
L7.625 46.4375
L1.51562 46.4375
L1.51562 52.8281
L7.95312 52.8281
L10.5469 64.6562
L16.4062 64.6562
L16.4062 52.8281
L26.1719 52.8281
L26.1719 46.4375
L16.4062 46.4375
L16.4062 13.0938
Q16.4062 9.28125 17.6406 7.73438
Q18.8906 6.20312 21.9688 6.20312
Q23.25 6.20312 24.4375 6.39062
Q25.6406 6.59375 27.0469 6.89062
z
" id="LiberationSans-74"/>
    </defs>
    <g style="fill:#fffff0;" transform="translate(449.136 182.430293324)scale(0.17 -0.17)">
     <use xlink:href="#LiberationSans-38"/>
     <use x="55.615234375" xlink:href="#LiberationSans-31"/>
     <use x="111.23046875" xlink:href="#LiberationSans-38"/>
     <use x="166.845703125" xlink:href="#LiberationSans-33"/>
     <use x="222.4609375" xlink:href="#LiberationSans-3a"/>
     <use x="250.244140625" xlink:href="#LiberationSans-20"/>
     <use x="276.27734375" xlink:href="#LiberationSans-54"/>
     <use x="326.236328125" xlink:href="#LiberationSans-6f"/>
     <use x="381.8515625" xlink:href="#LiberationSans-74"/>
     <use x="409.634765625" xlink:href="#LiberationSans-61"/>
     <use x="465.25" xlink:href="#LiberationSans-6c"/>
    </g>
   </g>
  </g>
 </g>
</svg>
