<?xml version="1.0" encoding="utf-8" standalone="no"?>
<!DOCTYPE svg PUBLIC "-//W3C//DTD SVG 1.1//EN"
  "http://www.w3.org/Graphics/SVG/1.1/DTD/svg11.dtd">
<!-- Created with matplotlib (http://matplotlib.org/) -->
<svg height="257pt" version="1.1" viewBox="0 0 651 257" width="651pt" xmlns="http://www.w3.org/2000/svg" xmlns:xlink="http://www.w3.org/1999/xlink">
 <defs>
  <style type="text/css">
*{stroke-linecap:butt;stroke-linejoin:round;}
  </style>
 </defs>
 <g id="figure_1">
  <g id="patch_1">
   <path d="
M0 257.742
L651.262 257.742
L651.262 0
L0 0
L0 257.742" style="fill:none;"/>
  </g>
  <g id="axes_1">
   <g id="patch_2">
    <path d="
M30.2625 179.261
L644.063 179.261
L644.063 11.8609
L30.2625 11.8609
L30.2625 179.261" style="fill:none;"/>
   </g>
   <g id="matplotlib.axis_1">
    <g id="xtick_1">
     <g id="line2d_1">
      <path clip-path="url(#pd1f42f6685)" d="
M46.4151 179.261
L46.4151 11.8609" style="fill:none;stroke:#ffffff;stroke-linecap:round;"/>
     </g>
     <g id="line2d_2">
      <defs>
       <path d="
M0 0
L0 0" id="me8dbda9127" style="stroke:#fffff0;"/>
      </defs>
      <g>
       <use style="fill:#fffff0;stroke:#fffff0;" x="46.4151315789" xlink:href="#me8dbda9127" y="179.2609375"/>
      </g>
     </g>
     <g id="line2d_3">
      <g>
       <use style="fill:#fffff0;stroke:#fffff0;" x="46.4151315789" xlink:href="#me8dbda9127" y="11.8609375"/>
      </g>
     </g>
     <g id="text_1">
      <!-- python-dateutil -->
      <defs>
       <path d="
M40.0938 8.5
Q37.6406 3.42188 33.6094 1.21875
Q29.5938 -0.984375 23.6406 -0.984375
Q13.625 -0.984375 8.90625 5.75
Q4.20312 12.5 4.20312 26.1719
Q4.20312 53.8125 23.6406 53.8125
Q29.6406 53.8125 33.6406 51.6094
Q37.6406 49.4219 40.0938 44.625
L40.1875 44.625
Q40.1875 45.125 40.1562 46.1719
Q40.1406 47.2188 40.1094 48.3594
Q40.0938 49.5156 40.0938 50.5312
Q40.0938 51.5625 40.0938 52
L40.0938 72.4688
L48.875 72.4688
L48.875 10.8906
Q48.875 8.98438 48.8906 7.21875
Q48.9219 5.46875 48.9688 4
Q49.0312 2.54688 49.0781 1.48438
Q49.125 0.4375 49.1719 0
L40.7656 0
Q40.6719 0.484375 40.5938 1.39062
Q40.5312 2.29688 40.4531 3.46875
Q40.375 4.64062 40.3281 5.9375
Q40.2812 7.23438 40.2812 8.5
z

M13.4219 26.4688
Q13.4219 21 14.1094 17.0938
Q14.7969 13.1875 16.3125 10.6719
Q17.8281 8.15625 20.1719 6.98438
Q22.5156 5.8125 25.875 5.8125
Q29.3438 5.8125 32 6.9375
Q34.6719 8.0625 36.4531 10.5781
Q38.2344 13.0938 39.1562 17.1406
Q40.0938 21.1875 40.0938 27.0469
Q40.0938 32.6719 39.1562 36.5469
Q38.2344 40.4375 36.4219 42.8281
Q34.625 45.2188 32 46.2656
Q29.3906 47.3125 25.9844 47.3125
Q22.75 47.3125 20.4062 46.1875
Q18.0625 45.0625 16.5 42.5781
Q14.9375 40.0938 14.1719 36.1094
Q13.4219 32.125 13.4219 26.4688" id="LiberationSans-64"/>
       <path d="
M13.4844 24.5625
Q13.4844 20.4062 14.3281 16.9062
Q15.1875 13.4219 16.9688 10.9062
Q18.75 8.40625 21.5312 7
Q24.3125 5.60938 28.2188 5.60938
Q33.9375 5.60938 37.375 7.90625
Q40.8281 10.2031 42.0469 13.7188
L49.75 11.5312
Q48.9219 9.32812 47.4375 7.10938
Q45.9531 4.89062 43.4531 3.09375
Q40.9688 1.3125 37.2344 0.15625
Q33.5 -0.984375 28.2188 -0.984375
Q16.5 -0.984375 10.375 6
Q4.25 12.9844 4.25 26.7656
Q4.25 34.1875 6.09375 39.3281
Q7.95312 44.4844 11.1719 47.7031
Q14.4062 50.9219 18.7031 52.3594
Q23 53.8125 27.875 53.8125
Q34.5156 53.8125 38.9844 51.6562
Q43.4531 49.5156 46.1562 45.7188
Q48.875 41.9375 50.0156 36.8125
Q51.1719 31.6875 51.1719 25.7344
L51.1719 24.5625
z

M42.0938 31.2969
Q41.3594 39.6562 37.8438 43.4844
Q34.3281 47.3125 27.7344 47.3125
Q25.5312 47.3125 23.1094 46.6094
Q20.7031 45.9062 18.6562 44.0938
Q16.6094 42.2812 15.1875 39.1719
Q13.7656 36.0781 13.5781 31.2969
z
" id="LiberationSans-65"/>
       <path d="
M51.4219 26.6562
Q51.4219 20.6562 50.4375 15.5781
Q49.4688 10.5 47.1875 6.82812
Q44.9219 3.17188 41.1875 1.09375
Q37.4531 -0.984375 31.9844 -0.984375
Q26.3125 -0.984375 22.0625 1.17188
Q17.8281 3.32812 15.5781 8.20312
L15.3281 8.20312
Q15.375 8.10938 15.4062 7.32812
Q15.4375 6.54688 15.4531 5.375
Q15.4844 4.20312 15.5 2.75
Q15.5312 1.3125 15.5312 -0.09375
L15.5312 -20.75
L6.73438 -20.75
L6.73438 42.0469
Q6.73438 43.9531 6.70312 45.7031
Q6.6875 47.4688 6.64062 48.9062
Q6.59375 50.3438 6.54688 51.3594
Q6.5 52.3906 6.45312 52.8281
L14.9375 52.8281
Q14.9844 52.6875 15.0625 51.7969
Q15.1406 50.9219 15.2031 49.6719
Q15.2812 48.4375 15.3594 47.0156
Q15.4375 45.6094 15.4375 44.3438
L15.625 44.3438
Q16.8438 46.875 18.4062 48.6562
Q19.9688 50.4375 21.9688 51.5781
Q23.9688 52.7344 26.4375 53.25
Q28.9062 53.7656 31.9844 53.7656
Q37.4531 53.7656 41.1875 51.8125
Q44.9219 49.8594 47.1875 46.3125
Q49.4688 42.7812 50.4375 37.7656
Q51.4219 32.7656 51.4219 26.6562
M42.1875 26.4688
Q42.1875 31.3438 41.5938 35.1562
Q41.0156 38.9688 39.5781 41.5938
Q38.1406 44.2344 35.7344 45.5938
Q33.3438 46.9688 29.7344 46.9688
Q26.8125 46.9688 24.2188 46.1406
Q21.625 45.3125 19.7031 42.9688
Q17.7812 40.625 16.6562 36.5
Q15.5312 32.375 15.5312 25.7812
Q15.5312 20.1719 16.4531 16.2812
Q17.3906 12.4062 19.1719 10.0156
Q20.9531 7.625 23.5781 6.5625
Q26.2188 5.51562 29.6406 5.51562
Q33.2969 5.51562 35.7188 6.92188
Q38.1406 8.34375 39.5781 11.0312
Q41.0156 13.7188 41.5938 17.5938
Q42.1875 21.4844 42.1875 26.4688" id="LiberationSans-70"/>
       <path d="
M20.2188 -0.984375
Q12.25 -0.984375 8.25 3.21875
Q4.25 7.42188 4.25 14.75
Q4.25 19.9688 6.21875 23.3125
Q8.20312 26.6562 11.3906 28.5625
Q14.5938 30.4688 18.6875 31.2031
Q22.7969 31.9375 27.0469 32.0312
L38.9219 32.2344
L38.9219 35.1094
Q38.9219 38.375 38.2344 40.6719
Q37.5469 42.9688 36.125 44.375
Q34.7188 45.7969 32.5938 46.4531
Q30.4688 47.125 27.5938 47.125
Q25.0469 47.125 23 46.75
Q20.9531 46.3906 19.4375 45.4375
Q17.9219 44.4844 16.9844 42.8438
Q16.0625 41.2188 15.7656 38.7188
L6.59375 39.5469
Q7.07812 42.6719 8.4375 45.2812
Q9.8125 47.9062 12.3281 49.7969
Q14.8438 51.7031 18.625 52.75
Q22.4062 53.8125 27.7812 53.8125
Q37.75 53.8125 42.7656 49.2344
Q47.7969 44.6719 47.7969 36.0312
L47.7969 13.2812
Q47.7969 9.375 48.8281 7.39062
Q49.8594 5.42188 52.7344 5.42188
Q53.4688 5.42188 54.2031 5.51562
Q54.9375 5.60938 55.6094 5.76562
L55.6094 0.296875
Q53.9531 -0.09375 52.3125 -0.28125
Q50.6875 -0.484375 48.8281 -0.484375
Q46.3438 -0.484375 44.5625 0.171875
Q42.7812 0.828125 41.6562 2.17188
Q40.5312 3.51562 39.9375 5.48438
Q39.3594 7.46875 39.2031 10.1094
L38.9219 10.1094
Q37.5 7.5625 35.8125 5.51562
Q34.125 3.46875 31.875 2.03125
Q29.6406 0.59375 26.7812 -0.1875
Q23.9219 -0.984375 20.2188 -0.984375
M22.2188 5.60938
Q26.4219 5.60938 29.5625 7.14062
Q32.7188 8.6875 34.7812 11.0781
Q36.8594 13.4844 37.8906 16.3125
Q38.9219 19.1406 38.9219 21.7344
L38.9219 26.0781
L29.2969 25.875
Q26.0781 25.8281 23.1719 25.4062
Q20.2656 25 18.0625 23.7812
Q15.875 22.5625 14.5781 20.3594
Q13.2812 18.1719 13.2812 14.5938
Q13.2812 10.2969 15.5938 7.95312
Q17.9219 5.60938 22.2188 5.60938" id="LiberationSans-61"/>
       <path d="
M15.3281 52.8281
L15.3281 19.3438
Q15.3281 15.4844 15.8906 12.8906
Q16.4531 10.2969 17.7188 8.70312
Q19 7.125 21.0625 6.46875
Q23.1406 5.8125 26.2188 5.8125
Q29.3438 5.8125 31.8594 6.90625
Q34.375 8.01562 36.1562 10.0781
Q37.9375 12.1562 38.9062 15.2031
Q39.8906 18.2656 39.8906 22.2188
L39.8906 52.8281
L48.6875 52.8281
L48.6875 11.2812
Q48.6875 9.625 48.7031 7.78125
Q48.7344 5.95312 48.7812 4.3125
Q48.8281 2.6875 48.875 1.51562
Q48.9219 0.34375 48.9688 0
L40.6719 0
Q40.625 0.25 40.5781 1.3125
Q40.5312 2.39062 40.4531 3.78125
Q40.375 5.17188 40.3281 6.60938
Q40.2812 8.0625 40.2812 9.03125
L40.1406 9.03125
Q38.875 6.73438 37.3594 4.875
Q35.8438 3.03125 33.8438 1.73438
Q31.8438 0.4375 29.25 -0.265625
Q26.6562 -0.984375 23.25 -0.984375
Q18.8438 -0.984375 15.6719 0.09375
Q12.5 1.17188 10.4531 3.42188
Q8.40625 5.67188 7.45312 9.1875
Q6.5 12.7031 6.5 17.625
L6.5 52.8281
z
" id="LiberationSans-75"/>
       <path d="
M27.0469 0.390625
Q25.0469 -0.140625 22.9688 -0.453125
Q20.9062 -0.78125 18.1719 -0.78125
Q7.625 -0.78125 7.625 11.1875
L7.625 46.4375
L1.51562 46.4375
L1.51562 52.8281
L7.95312 52.8281
L10.5469 64.6562
L16.4062 64.6562
L16.4062 52.8281
L26.1719 52.8281
L26.1719 46.4375
L16.4062 46.4375
L16.4062 13.0938
Q16.4062 9.28125 17.6406 7.73438
Q18.8906 6.20312 21.9688 6.20312
Q23.25 6.20312 24.4375 6.39062
Q25.6406 6.59375 27.0469 6.89062
z
" id="LiberationSans-74"/>
       <path d="
M4.4375 22.6562
L4.4375 30.4688
L28.8594 30.4688
L28.8594 22.6562
z
" id="LiberationSans-2d"/>
       <path d="
M29.5 0
Q27.6406 -4.78125 25.7031 -8.60938
Q23.7812 -12.4531 21.3906 -15.1562
Q19 -17.875 16.0625 -19.3125
Q13.1406 -20.75 9.32812 -20.75
Q7.67188 -20.75 6.25 -20.6562
Q4.82812 -20.5625 3.26562 -20.2188
L3.26562 -13.625
Q4.20312 -13.7656 5.375 -13.8438
Q6.54688 -13.9219 7.375 -13.9219
Q11.2344 -13.9219 14.5469 -11.0312
Q17.875 -8.15625 20.3594 -1.85938
L21.1875 0.25
L0.25 52.8281
L9.625 52.8281
L20.75 23.6406
Q21.2344 22.3125 21.9844 20.1094
Q22.75 17.9219 23.5 15.7188
Q24.2656 13.5312 24.8438 11.7656
Q25.4375 10.0156 25.5312 9.57812
Q25.6875 10.1094 26.25 11.6875
Q26.8125 13.2812 27.5156 15.2344
Q28.2188 17.1875 28.9531 19.1875
Q29.6875 21.1875 30.1719 22.6562
L40.5312 52.8281
L49.8125 52.8281
z
" id="LiberationSans-79"/>
       <path d="
M15.4844 43.7969
Q16.9375 46.4844 18.6406 48.3594
Q20.3594 50.25 22.4062 51.4688
Q24.4688 52.6875 26.9062 53.25
Q29.3438 53.8125 32.375 53.8125
Q37.4531 53.8125 40.7031 52.4375
Q43.9531 51.0781 45.8281 48.6094
Q47.7031 46.1406 48.4062 42.7188
Q49.125 39.3125 49.125 35.2031
L49.125 0
L40.2812 0
L40.2812 33.5
Q40.2812 36.8594 39.8594 39.3906
Q39.4531 41.9375 38.2812 43.625
Q37.1094 45.3125 34.9531 46.1562
Q32.8125 47.0156 29.3906 47.0156
Q26.2656 47.0156 23.75 45.8906
Q21.2344 44.7812 19.4531 42.7188
Q17.6719 40.6719 16.6875 37.7344
Q15.7188 34.8125 15.7188 31.1562
L15.7188 0
L6.9375 0
L6.9375 72.4688
L15.7188 72.4688
L15.7188 53.6094
Q15.7188 52 15.6719 50.3906
Q15.625 48.7812 15.5469 47.4062
Q15.4844 46.0469 15.4219 45.0938
Q15.375 44.1406 15.3281 43.7969
z
" id="LiberationSans-68"/>
       <path d="
M6.6875 64.0625
L6.6875 72.4688
L15.4844 72.4688
L15.4844 64.0625
z

M6.6875 0
L6.6875 52.8281
L15.4844 52.8281
L15.4844 0
z
" id="LiberationSans-69"/>
       <path d="
M40.2812 0
L40.2812 33.5
Q40.2812 37.3594 39.7188 39.9375
Q39.1562 42.5312 37.8906 44.1094
Q36.625 45.7031 34.5469 46.3594
Q32.4688 47.0156 29.3906 47.0156
Q26.2656 47.0156 23.75 45.9219
Q21.2344 44.8281 19.4531 42.75
Q17.6719 40.6719 16.6875 37.625
Q15.7188 34.5781 15.7188 30.6094
L15.7188 0
L6.9375 0
L6.9375 41.5469
Q6.9375 43.2188 6.90625 45.0469
Q6.89062 46.875 6.82812 48.5
Q6.78125 50.1406 6.73438 51.3125
Q6.6875 52.4844 6.64062 52.8281
L14.9375 52.8281
Q14.9844 52.5938 15.0312 51.5156
Q15.0938 50.4375 15.1562 49.0469
Q15.2344 47.6562 15.2812 46.2188
Q15.3281 44.7812 15.3281 43.7969
L15.4844 43.7969
Q16.75 46.0938 18.2656 47.9531
Q19.7812 49.8125 21.7812 51.0938
Q23.7812 52.3906 26.3594 53.0938
Q28.9531 53.8125 32.375 53.8125
Q36.7656 53.8125 39.9375 52.7344
Q43.1094 51.6562 45.1562 49.4062
Q47.2188 47.1719 48.1719 43.625
Q49.125 40.0938 49.125 35.2031
L49.125 0
z
" id="LiberationSans-6e"/>
       <path d="
M51.4219 26.4688
Q51.4219 12.5938 45.3125 5.79688
Q39.2031 -0.984375 27.5938 -0.984375
Q22.0781 -0.984375 17.7188 0.671875
Q13.375 2.34375 10.375 5.76562
Q7.375 9.1875 5.78125 14.3281
Q4.20312 19.4844 4.20312 26.4688
Q4.20312 53.8125 27.875 53.8125
Q34.0312 53.8125 38.5 52.0938
Q42.9688 50.3906 45.8281 46.9688
Q48.6875 43.5625 50.0469 38.4219
Q51.4219 33.2969 51.4219 26.4688
M42.1875 26.4688
Q42.1875 32.625 41.2344 36.625
Q40.2812 40.625 38.4531 43.0156
Q36.625 45.4062 33.9844 46.3594
Q31.3438 47.3125 28.0312 47.3125
Q24.6562 47.3125 21.9375 46.3125
Q19.2344 45.3125 17.3281 42.8906
Q15.4375 40.4844 14.4219 36.4688
Q13.4219 32.4688 13.4219 26.4688
Q13.4219 20.3125 14.5 16.2812
Q15.5781 12.25 17.4531 9.85938
Q19.3438 7.46875 21.9062 6.48438
Q24.4688 5.51562 27.4844 5.51562
Q30.8594 5.51562 33.5938 6.46875
Q36.3281 7.42188 38.2344 9.8125
Q40.1406 12.2031 41.1562 16.25
Q42.1875 20.3125 42.1875 26.4688" id="LiberationSans-6f"/>
       <path d="
M6.73438 0
L6.73438 72.4688
L15.5312 72.4688
L15.5312 0
z
" id="LiberationSans-6c"/>
      </defs>
      <g style="fill:#fffff0;" transform="translate(49.0010690789 250.5421875)rotate(-90.0)scale(0.1 -0.1)">
       <use xlink:href="#LiberationSans-70"/>
       <use x="55.615234375" xlink:href="#LiberationSans-79"/>
       <use x="105.615234375" xlink:href="#LiberationSans-74"/>
       <use x="133.3984375" xlink:href="#LiberationSans-68"/>
       <use x="189.013671875" xlink:href="#LiberationSans-6f"/>
       <use x="244.62890625" xlink:href="#LiberationSans-6e"/>
       <use x="300.244140625" xlink:href="#LiberationSans-2d"/>
       <use x="333.544921875" xlink:href="#LiberationSans-64"/>
       <use x="389.16015625" xlink:href="#LiberationSans-61"/>
       <use x="444.775390625" xlink:href="#LiberationSans-74"/>
       <use x="472.55859375" xlink:href="#LiberationSans-65"/>
       <use x="528.173828125" xlink:href="#LiberationSans-75"/>
       <use x="583.7890625" xlink:href="#LiberationSans-74"/>
       <use x="611.572265625" xlink:href="#LiberationSans-69"/>
       <use x="633.7890625" xlink:href="#LiberationSans-6c"/>
      </g>
     </g>
    </g>
    <g id="xtick_2">
     <g id="line2d_4">
      <path clip-path="url(#pd1f42f6685)" d="
M78.7204 179.261
L78.7204 11.8609" style="fill:none;stroke:#ffffff;stroke-linecap:round;"/>
     </g>
     <g id="line2d_5">
      <g>
       <use style="fill:#fffff0;stroke:#fffff0;" x="78.7203947368" xlink:href="#me8dbda9127" y="179.2609375"/>
      </g>
     </g>
     <g id="line2d_6">
      <g>
       <use style="fill:#fffff0;stroke:#fffff0;" x="78.7203947368" xlink:href="#me8dbda9127" y="11.8609375"/>
      </g>
     </g>
     <g id="text_2">
      <!-- geos -->
      <defs>
       <path d="
M46.3906 14.5938
Q46.3906 10.8906 44.9375 7.98438
Q43.5 5.07812 40.7656 3.09375
Q38.0312 1.125 34.0469 0.0625
Q30.0781 -0.984375 24.9531 -0.984375
Q20.3594 -0.984375 16.6719 -0.265625
Q12.9844 0.4375 10.2031 2
Q7.42188 3.5625 5.53125 6.125
Q3.65625 8.6875 2.78125 12.4062
L10.5469 13.9219
Q11.6719 9.67188 15.1875 7.6875
Q18.7031 5.71875 24.9531 5.71875
Q27.7812 5.71875 30.1406 6.10938
Q32.5156 6.5 34.2188 7.45312
Q35.9375 8.40625 36.8906 9.98438
Q37.8438 11.5781 37.8438 13.9219
Q37.8438 16.3125 36.7188 17.8438
Q35.5938 19.3906 33.5938 20.4062
Q31.5938 21.4375 28.7344 22.1875
Q25.875 22.9531 22.4688 23.875
Q19.2812 24.7031 16.1562 25.7344
Q13.0312 26.7656 10.5156 28.4375
Q8.01562 30.125 6.45312 32.6094
Q4.89062 35.1094 4.89062 38.875
Q4.89062 46.0938 10.0312 49.875
Q15.1875 53.6562 25.0469 53.6562
Q33.7969 53.6562 38.9375 50.5781
Q44.0938 47.5156 45.4531 40.7188
L37.5469 39.75
Q37.1094 41.7969 35.9375 43.1875
Q34.7656 44.5781 33.1094 45.4375
Q31.4531 46.2969 29.375 46.6562
Q27.2969 47.0156 25.0469 47.0156
Q19.0938 47.0156 16.25 45.2031
Q13.4219 43.4062 13.4219 39.75
Q13.4219 37.5938 14.4688 36.2031
Q15.5312 34.8125 17.4062 33.8594
Q19.2812 32.9062 21.9219 32.2031
Q24.5625 31.5 27.7344 30.7188
Q29.8281 30.1719 32.0312 29.5625
Q34.2344 28.9531 36.2969 28.0938
Q38.375 27.25 40.2031 26.0938
Q42.0469 24.9531 43.4062 23.3438
Q44.7812 21.7344 45.5781 19.5781
Q46.3906 17.4375 46.3906 14.5938" id="LiberationSans-73"/>
       <path d="
M26.7656 -20.75
Q22.2188 -20.75 18.7031 -19.8125
Q15.1875 -18.8906 12.6875 -17.1562
Q10.2031 -15.4375 8.64062 -13.0312
Q7.07812 -10.6406 6.39062 -7.71875
L15.2344 -6.45312
Q16.1094 -10.1094 19.1094 -12.0781
Q22.125 -14.0625 27 -14.0625
Q29.9844 -14.0625 32.4219 -13.2344
Q34.8594 -12.4062 36.5625 -10.5625
Q38.2812 -8.73438 39.2031 -5.79688
Q40.1406 -2.875 40.1406 1.3125
L40.1406 9.8125
L40.0469 9.8125
Q39.0625 7.8125 37.625 5.98438
Q36.1875 4.15625 34.1094 2.73438
Q32.0312 1.3125 29.2969 0.453125
Q26.5625 -0.390625 23.0469 -0.390625
Q18.0156 -0.390625 14.4219 1.29688
Q10.8438 2.98438 8.5625 6.34375
Q6.29688 9.71875 5.25 14.7188
Q4.20312 19.7344 4.20312 26.3125
Q4.20312 32.6719 5.25 37.75
Q6.29688 42.8281 8.65625 46.3594
Q11.0312 49.9062 14.8125 51.7812
Q18.6094 53.6562 24.0312 53.6562
Q29.6406 53.6562 33.7656 51.0938
Q37.8906 48.5312 40.1406 43.7969
L40.2344 43.7969
Q40.2344 45.0156 40.2969 46.5312
Q40.375 48.0469 40.4531 49.3906
Q40.5312 50.7344 40.625 51.7031
Q40.7188 52.6875 40.8281 52.8281
L49.1719 52.8281
Q49.125 52.3906 49.0781 51.3438
Q49.0312 50.2969 48.9688 48.8281
Q48.9219 47.3594 48.8906 45.5781
Q48.875 43.7969 48.875 41.8906
L48.875 1.51562
Q48.875 -9.57812 43.4219 -15.1562
Q37.9844 -20.75 26.7656 -20.75
M40.1406 26.4219
Q40.1406 31.9375 38.9375 35.8594
Q37.75 39.7969 35.7969 42.2812
Q33.8438 44.7812 31.3281 45.9531
Q28.8125 47.125 26.1719 47.125
Q22.7969 47.125 20.375 45.9531
Q17.9688 44.7812 16.375 42.2656
Q14.7969 39.75 14.0312 35.8125
Q13.2812 31.8906 13.2812 26.4219
Q13.2812 20.7031 14.0312 16.8125
Q14.7969 12.9375 16.3594 10.5469
Q17.9219 8.15625 20.3125 7.125
Q22.7031 6.10938 26.0312 6.10938
Q28.6562 6.10938 31.1719 7.21875
Q33.6875 8.34375 35.6875 10.7812
Q37.7031 13.2344 38.9219 17.0938
Q40.1406 20.9531 40.1406 26.4219" id="LiberationSans-67"/>
      </defs>
      <g style="fill:#fffff0;" transform="translate(81.3063322368 207.1625)rotate(-90.0)scale(0.1 -0.1)">
       <use xlink:href="#LiberationSans-67"/>
       <use x="55.615234375" xlink:href="#LiberationSans-65"/>
       <use x="111.23046875" xlink:href="#LiberationSans-6f"/>
       <use x="166.845703125" xlink:href="#LiberationSans-73"/>
      </g>
     </g>
    </g>
    <g id="xtick_3">
     <g id="line2d_7">
      <path clip-path="url(#pd1f42f6685)" d="
M111.026 179.261
L111.026 11.8609" style="fill:none;stroke:#ffffff;stroke-linecap:round;"/>
     </g>
     <g id="line2d_8">
      <g>
       <use style="fill:#fffff0;stroke:#fffff0;" x="111.025657895" xlink:href="#me8dbda9127" y="179.2609375"/>
      </g>
     </g>
     <g id="line2d_9">
      <g>
       <use style="fill:#fffff0;stroke:#fffff0;" x="111.025657895" xlink:href="#me8dbda9127" y="11.8609375"/>
      </g>
     </g>
     <g id="text_3">
      <!-- proj4 -->
      <defs>
       <path d="
M6.9375 0
L6.9375 40.5312
Q6.9375 42.1875 6.90625 43.9219
Q6.89062 45.6562 6.82812 47.2656
Q6.78125 48.875 6.73438 50.2812
Q6.6875 51.7031 6.64062 52.8281
L14.9375 52.8281
Q14.9844 51.7031 15.0625 50.2656
Q15.1406 48.8281 15.2031 47.3125
Q15.2812 45.7969 15.2969 44.4062
Q15.3281 43.0156 15.3281 42.0469
L15.5312 42.0469
Q16.4531 45.0625 17.5 47.2812
Q18.5625 49.5156 19.9688 50.9531
Q21.3906 52.3906 23.3438 53.0938
Q25.2969 53.8125 28.0781 53.8125
Q29.1562 53.8125 30.125 53.6406
Q31.1094 53.4688 31.6406 53.3281
L31.6406 45.2656
Q30.7656 45.5156 29.5938 45.625
Q28.4219 45.75 26.9531 45.75
Q23.9219 45.75 21.7969 44.375
Q19.6719 43.0156 18.3281 40.5938
Q17 38.1875 16.3594 34.8438
Q15.7188 31.5 15.7188 27.5469
L15.7188 0
z
" id="LiberationSans-72"/>
       <path d="
M43.0156 15.5781
L43.0156 0
L34.7188 0
L34.7188 15.5781
L2.29688 15.5781
L2.29688 22.4062
L33.7969 68.7969
L43.0156 68.7969
L43.0156 22.5156
L52.6875 22.5156
L52.6875 15.5781
z

M34.7188 58.8906
Q34.625 58.6406 34.2344 57.9375
Q33.8438 57.2344 33.3438 56.3438
Q32.8594 55.4688 32.3438 54.5625
Q31.8438 53.6562 31.4531 53.0781
L13.8125 27.0938
Q13.5781 26.7031 13.1094 26.0625
Q12.6406 25.4375 12.1562 24.7812
Q11.6719 24.125 11.1719 23.4844
Q10.6875 22.8594 10.4062 22.5156
L34.7188 22.5156
z
" id="LiberationSans-34"/>
       <path d="
M6.6875 64.0625
L6.6875 72.4688
L15.4844 72.4688
L15.4844 64.0625
z

M15.4844 -6.54688
Q15.4844 -9.57812 14.9688 -12.1562
Q14.4531 -14.75 13.125 -16.6562
Q11.8125 -18.5625 9.54688 -19.6562
Q7.28125 -20.75 3.76562 -20.75
Q2.09375 -20.75 0.5 -20.6562
Q-1.07812 -20.5625 -2.4375 -20.3125
L-2.4375 -13.5312
Q-1.8125 -13.625 -0.921875 -13.7188
Q-0.046875 -13.8125 0.59375 -13.8125
Q2.4375 -13.8125 3.625 -13.3281
Q4.82812 -12.8438 5.51562 -11.7969
Q6.20312 -10.75 6.4375 -9.10938
Q6.6875 -7.46875 6.6875 -5.21875
L6.6875 52.8281
L15.4844 52.8281
z
" id="LiberationSans-6a"/>
      </defs>
      <g style="fill:#fffff0;" transform="translate(113.611595395 207.5578125)rotate(-90.0)scale(0.1 -0.1)">
       <use xlink:href="#LiberationSans-70"/>
       <use x="55.615234375" xlink:href="#LiberationSans-72"/>
       <use x="88.916015625" xlink:href="#LiberationSans-6f"/>
       <use x="144.53125" xlink:href="#LiberationSans-6a"/>
       <use x="166.748046875" xlink:href="#LiberationSans-34"/>
      </g>
     </g>
    </g>
    <g id="xtick_4">
     <g id="line2d_10">
      <path clip-path="url(#pd1f42f6685)" d="
M143.331 179.261
L143.331 11.8609" style="fill:none;stroke:#ffffff;stroke-linecap:round;"/>
     </g>
     <g id="line2d_11">
      <g>
       <use style="fill:#fffff0;stroke:#fffff0;" x="143.330921053" xlink:href="#me8dbda9127" y="179.2609375"/>
      </g>
     </g>
     <g id="line2d_12">
      <g>
       <use style="fill:#fffff0;stroke:#fffff0;" x="143.330921053" xlink:href="#me8dbda9127" y="11.8609375"/>
      </g>
     </g>
     <g id="text_4">
      <!-- owslib -->
      <defs>
       <path d="
M57.3281 0
L47.125 0
L38.6719 34.0781
Q38.2812 35.4062 37.8594 37.3594
Q37.4531 39.3125 37.0625 41.1562
Q36.5781 43.3125 36.1406 45.6094
Q35.6875 43.4062 35.2031 41.2656
Q34.8125 39.4062 34.3438 37.4062
Q33.8906 35.4062 33.5 33.8906
L24.8125 0
L14.6562 0
L-0.140625 52.8281
L8.54688 52.8281
L17.4844 16.9375
Q17.8281 15.8281 18.1562 14.1875
Q18.5 12.5469 18.8438 10.9844
Q19.1875 9.1875 19.5781 7.28125
Q19.9688 9.125 20.4062 10.8906
Q20.7969 12.4062 21.1875 13.9688
Q21.5781 15.5312 21.875 16.5469
L31.4531 52.8281
L40.875 52.8281
L50.0938 16.5469
Q50.4375 15.2812 50.8281 13.6719
Q51.2188 12.0625 51.5625 10.6406
Q51.9531 8.98438 52.3438 7.28125
Q52.7344 9.125 53.125 10.8906
Q53.4688 12.4062 53.8281 14.0312
Q54.2031 15.6719 54.5469 16.9375
L63.875 52.8281
L72.4688 52.8281
z
" id="LiberationSans-77"/>
       <path d="
M51.4219 26.6562
Q51.4219 -0.984375 31.9844 -0.984375
Q25.9844 -0.984375 22 1.1875
Q18.0156 3.375 15.5312 8.20312
L15.4375 8.20312
Q15.4375 6.9375 15.3594 5.5625
Q15.2812 4.20312 15.2031 3.03125
Q15.1406 1.85938 15.0625 1.03125
Q14.9844 0.203125 14.9375 0
L6.45312 0
Q6.5 0.4375 6.54688 1.48438
Q6.59375 2.54688 6.64062 4
Q6.6875 5.46875 6.70312 7.21875
Q6.73438 8.98438 6.73438 10.8906
L6.73438 72.4688
L15.5312 72.4688
L15.5312 51.8125
Q15.5312 50.3438 15.5 49
Q15.4844 47.6562 15.4375 46.625
Q15.375 45.4062 15.3281 44.3438
L15.5312 44.3438
Q17.9688 49.4219 22 51.6094
Q26.0312 53.8125 31.9844 53.8125
Q42 53.8125 46.7031 47.0625
Q51.4219 40.3281 51.4219 26.6562
M42.1875 26.375
Q42.1875 31.8438 41.5 35.75
Q40.8281 39.6562 39.3125 42.1562
Q37.7969 44.6719 35.4531 45.8438
Q33.1094 47.0156 29.7344 47.0156
Q26.2656 47.0156 23.6094 45.8906
Q20.9531 44.7812 19.1719 42.2812
Q17.3906 39.7969 16.4531 35.7344
Q15.5312 31.6875 15.5312 25.8281
Q15.5312 20.1719 16.4531 16.3125
Q17.3906 12.4531 19.1719 10.0312
Q20.9531 7.625 23.5781 6.5625
Q26.2188 5.51562 29.6406 5.51562
Q32.8594 5.51562 35.2031 6.64062
Q37.5469 7.76562 39.1094 10.25
Q40.6719 12.75 41.4219 16.7188
Q42.1875 20.7031 42.1875 26.375" id="LiberationSans-62"/>
      </defs>
      <g style="fill:#fffff0;" transform="translate(145.916858553 213.209375)rotate(-90.0)scale(0.1 -0.1)">
       <use xlink:href="#LiberationSans-6f"/>
       <use x="55.615234375" xlink:href="#LiberationSans-77"/>
       <use x="127.83203125" xlink:href="#LiberationSans-73"/>
       <use x="177.83203125" xlink:href="#LiberationSans-6c"/>
       <use x="200.048828125" xlink:href="#LiberationSans-69"/>
       <use x="222.265625" xlink:href="#LiberationSans-62"/>
      </g>
     </g>
    </g>
    <g id="xtick_5">
     <g id="line2d_13">
      <path clip-path="url(#pd1f42f6685)" d="
M175.636 179.261
L175.636 11.8609" style="fill:none;stroke:#ffffff;stroke-linecap:round;"/>
     </g>
     <g id="line2d_14">
      <g>
       <use style="fill:#fffff0;stroke:#fffff0;" x="175.636184211" xlink:href="#me8dbda9127" y="179.2609375"/>
      </g>
     </g>
     <g id="line2d_15">
      <g>
       <use style="fill:#fffff0;stroke:#fffff0;" x="175.636184211" xlink:href="#me8dbda9127" y="11.8609375"/>
      </g>
     </g>
     <g id="text_5">
      <!-- udunits2 -->
      <defs>
       <path d="
M5.03125 0
L5.03125 6.20312
Q7.51562 11.9219 11.1094 16.2812
Q14.7031 20.6562 18.6562 24.1875
Q22.6094 27.7344 26.4844 30.7656
Q30.375 33.7969 33.5 36.8125
Q36.625 39.8438 38.5469 43.1562
Q40.4844 46.4844 40.4844 50.6875
Q40.4844 53.6094 39.5938 55.8281
Q38.7188 58.0625 37.0625 59.5625
Q35.4062 61.0781 33.0781 61.8281
Q30.7656 62.5938 27.9375 62.5938
Q25.2969 62.5938 22.9688 61.8594
Q20.6562 61.1406 18.8438 59.6719
Q17.0469 58.2031 15.8906 56.0312
Q14.75 53.8594 14.4062 50.9844
L5.42188 51.8125
Q5.85938 55.5156 7.46875 58.7812
Q9.07812 62.0625 11.9062 64.5312
Q14.75 67 18.7188 68.4062
Q22.7031 69.8281 27.9375 69.8281
Q33.0625 69.8281 37.0625 68.6094
Q41.0625 67.3906 43.8125 64.9844
Q46.5781 62.5938 48.0469 59.0781
Q49.5156 55.5625 49.5156 50.9844
Q49.5156 47.5156 48.2656 44.3906
Q47.0156 41.2656 44.9375 38.4219
Q42.875 35.5938 40.1406 32.9531
Q37.4062 30.3281 34.4219 27.8125
Q31.4531 25.2969 28.4219 22.8281
Q25.3906 20.3594 22.7188 17.8594
Q20.0625 15.375 17.9688 12.8125
Q15.875 10.25 14.7031 7.46875
L50.5938 7.46875
L50.5938 0
z
" id="LiberationSans-32"/>
      </defs>
      <g style="fill:#fffff0;" transform="translate(178.222121711 222.9140625)rotate(-90.0)scale(0.1 -0.1)">
       <use xlink:href="#LiberationSans-75"/>
       <use x="55.615234375" xlink:href="#LiberationSans-64"/>
       <use x="111.23046875" xlink:href="#LiberationSans-75"/>
       <use x="166.845703125" xlink:href="#LiberationSans-6e"/>
       <use x="222.4609375" xlink:href="#LiberationSans-69"/>
       <use x="244.677734375" xlink:href="#LiberationSans-74"/>
       <use x="272.4609375" xlink:href="#LiberationSans-73"/>
       <use x="322.4609375" xlink:href="#LiberationSans-32"/>
      </g>
     </g>
    </g>
    <g id="xtick_6">
     <g id="line2d_16">
      <path clip-path="url(#pd1f42f6685)" d="
M207.941 179.261
L207.941 11.8609" style="fill:none;stroke:#ffffff;stroke-linecap:round;"/>
     </g>
     <g id="line2d_17">
      <g>
       <use style="fill:#fffff0;stroke:#fffff0;" x="207.941447368" xlink:href="#me8dbda9127" y="179.2609375"/>
      </g>
     </g>
     <g id="line2d_18">
      <g>
       <use style="fill:#fffff0;stroke:#fffff0;" x="207.941447368" xlink:href="#me8dbda9127" y="11.8609375"/>
      </g>
     </g>
     <g id="text_6">
      <!-- obvious-ci -->
      <defs>
       <path d="
M29.9375 0
L19.5312 0
L0.34375 52.8281
L9.71875 52.8281
L21.3438 18.4531
Q21.6875 17.3906 22.1406 15.8438
Q22.6094 14.3125 23.0938 12.6406
Q23.5781 10.9844 24 9.4375
Q24.4219 7.90625 24.7031 6.89062
Q25 7.90625 25.4531 9.4375
Q25.9219 10.9844 26.4062 12.5938
Q26.9062 14.2031 27.4219 15.7344
Q27.9375 17.2812 28.3281 18.3594
L40.3281 52.8281
L49.6562 52.8281
z
" id="LiberationSans-76"/>
       <path d="
M13.4219 26.6562
Q13.4219 22.125 14.0781 18.3125
Q14.75 14.5 16.3125 11.7344
Q17.875 8.98438 20.4375 7.46875
Q23 5.95312 26.7656 5.95312
Q31.4531 5.95312 34.5938 8.48438
Q37.75 11.0312 38.4844 16.3125
L47.3594 15.7188
Q46.9219 12.4531 45.4531 9.42188
Q44 6.39062 41.4844 4.09375
Q38.9688 1.8125 35.3438 0.40625
Q31.7344 -0.984375 27 -0.984375
Q20.7969 -0.984375 16.4531 1.10938
Q12.1094 3.21875 9.39062 6.90625
Q6.6875 10.5938 5.46875 15.5938
Q4.25 20.6094 4.25 26.4688
Q4.25 31.7812 5.125 35.8594
Q6 39.9375 7.59375 42.9844
Q9.1875 46.0469 11.3281 48.125
Q13.4844 50.2031 15.9844 51.4375
Q18.5 52.6875 21.2812 53.25
Q24.0781 53.8125 26.9062 53.8125
Q31.3438 53.8125 34.8125 52.5938
Q38.2812 51.375 40.7969 49.25
Q43.3125 47.125 44.875 44.2344
Q46.4375 41.3594 47.0781 38.0312
L38.0312 37.3594
Q37.3594 41.75 34.5625 44.3281
Q31.7812 46.9219 26.6562 46.9219
Q22.9062 46.9219 20.3906 45.6719
Q17.875 44.4375 16.3125 41.9219
Q14.75 39.4062 14.0781 35.5938
Q13.4219 31.7812 13.4219 26.6562" id="LiberationSans-63"/>
      </defs>
      <g style="fill:#fffff0;" transform="translate(210.527384868 230.184375)rotate(-90.0)scale(0.1 -0.1)">
       <use xlink:href="#LiberationSans-6f"/>
       <use x="55.615234375" xlink:href="#LiberationSans-62"/>
       <use x="111.23046875" xlink:href="#LiberationSans-76"/>
       <use x="161.23046875" xlink:href="#LiberationSans-69"/>
       <use x="183.447265625" xlink:href="#LiberationSans-6f"/>
       <use x="239.0625" xlink:href="#LiberationSans-75"/>
       <use x="294.677734375" xlink:href="#LiberationSans-73"/>
       <use x="344.677734375" xlink:href="#LiberationSans-2d"/>
       <use x="377.978515625" xlink:href="#LiberationSans-63"/>
       <use x="427.978515625" xlink:href="#LiberationSans-69"/>
      </g>
     </g>
    </g>
    <g id="xtick_7">
     <g id="line2d_19">
      <path clip-path="url(#pd1f42f6685)" d="
M240.247 179.261
L240.247 11.8609" style="fill:none;stroke:#ffffff;stroke-linecap:round;"/>
     </g>
     <g id="line2d_20">
      <g>
       <use style="fill:#fffff0;stroke:#fffff0;" x="240.246710526" xlink:href="#me8dbda9127" y="179.2609375"/>
      </g>
     </g>
     <g id="line2d_21">
      <g>
       <use style="fill:#fffff0;stroke:#fffff0;" x="240.246710526" xlink:href="#me8dbda9127" y="11.8609375"/>
      </g>
     </g>
     <g id="text_7">
      <!-- shapely -->
      <g style="fill:#fffff0;" transform="translate(242.832648026 220.4296875)rotate(-90.0)scale(0.1 -0.1)">
       <use xlink:href="#LiberationSans-73"/>
       <use x="50.0" xlink:href="#LiberationSans-68"/>
       <use x="105.615234375" xlink:href="#LiberationSans-61"/>
       <use x="161.23046875" xlink:href="#LiberationSans-70"/>
       <use x="216.845703125" xlink:href="#LiberationSans-65"/>
       <use x="272.4609375" xlink:href="#LiberationSans-6c"/>
       <use x="294.677734375" xlink:href="#LiberationSans-79"/>
      </g>
     </g>
    </g>
    <g id="xtick_8">
     <g id="line2d_22">
      <path clip-path="url(#pd1f42f6685)" d="
M272.552 179.261
L272.552 11.8609" style="fill:none;stroke:#ffffff;stroke-linecap:round;"/>
     </g>
     <g id="line2d_23">
      <g>
       <use style="fill:#fffff0;stroke:#fffff0;" x="272.551973684" xlink:href="#me8dbda9127" y="179.2609375"/>
      </g>
     </g>
     <g id="line2d_24">
      <g>
       <use style="fill:#fffff0;stroke:#fffff0;" x="272.551973684" xlink:href="#me8dbda9127" y="11.8609375"/>
      </g>
     </g>
     <g id="text_8">
      <!-- cartopy -->
      <g style="fill:#fffff0;" transform="translate(275.137911184 218.6078125)rotate(-90.0)scale(0.1 -0.1)">
       <use xlink:href="#LiberationSans-63"/>
       <use x="50.0" xlink:href="#LiberationSans-61"/>
       <use x="105.615234375" xlink:href="#LiberationSans-72"/>
       <use x="138.916015625" xlink:href="#LiberationSans-74"/>
       <use x="166.69921875" xlink:href="#LiberationSans-6f"/>
       <use x="222.314453125" xlink:href="#LiberationSans-70"/>
       <use x="277.9296875" xlink:href="#LiberationSans-79"/>
      </g>
     </g>
    </g>
    <g id="xtick_9">
     <g id="line2d_25">
      <path clip-path="url(#pd1f42f6685)" d="
M304.857 179.261
L304.857 11.8609" style="fill:none;stroke:#ffffff;stroke-linecap:round;"/>
     </g>
     <g id="line2d_26">
      <g>
       <use style="fill:#fffff0;stroke:#fffff0;" x="304.857236842" xlink:href="#me8dbda9127" y="179.2609375"/>
      </g>
     </g>
     <g id="line2d_27">
      <g>
       <use style="fill:#fffff0;stroke:#fffff0;" x="304.857236842" xlink:href="#me8dbda9127" y="11.8609375"/>
      </g>
     </g>
     <g id="text_9">
      <!-- pyshp -->
      <g style="fill:#fffff0;" transform="translate(307.443174342 211.8796875)rotate(-90.0)scale(0.1 -0.1)">
       <use xlink:href="#LiberationSans-70"/>
       <use x="55.615234375" xlink:href="#LiberationSans-79"/>
       <use x="105.615234375" xlink:href="#LiberationSans-73"/>
       <use x="155.615234375" xlink:href="#LiberationSans-68"/>
       <use x="211.23046875" xlink:href="#LiberationSans-70"/>
      </g>
     </g>
    </g>
    <g id="xtick_10">
     <g id="line2d_28">
      <path clip-path="url(#pd1f42f6685)" d="
M337.162 179.261
L337.162 11.8609" style="fill:none;stroke:#ffffff;stroke-linecap:round;"/>
     </g>
     <g id="line2d_29">
      <g>
       <use style="fill:#fffff0;stroke:#fffff0;" x="337.1625" xlink:href="#me8dbda9127" y="179.2609375"/>
      </g>
     </g>
     <g id="line2d_30">
      <g>
       <use style="fill:#fffff0;stroke:#fffff0;" x="337.1625" xlink:href="#me8dbda9127" y="11.8609375"/>
      </g>
     </g>
     <g id="text_10">
      <!-- pyepsg -->
      <g style="fill:#fffff0;" transform="translate(339.7484375 217.215625)rotate(-90.0)scale(0.1 -0.1)">
       <use xlink:href="#LiberationSans-70"/>
       <use x="55.615234375" xlink:href="#LiberationSans-79"/>
       <use x="105.615234375" xlink:href="#LiberationSans-65"/>
       <use x="161.23046875" xlink:href="#LiberationSans-70"/>
       <use x="216.845703125" xlink:href="#LiberationSans-73"/>
       <use x="266.845703125" xlink:href="#LiberationSans-67"/>
      </g>
     </g>
    </g>
    <g id="xtick_11">
     <g id="line2d_31">
      <path clip-path="url(#pd1f42f6685)" d="
M369.468 179.261
L369.468 11.8609" style="fill:none;stroke:#ffffff;stroke-linecap:round;"/>
     </g>
     <g id="line2d_32">
      <g>
       <use style="fill:#fffff0;stroke:#fffff0;" x="369.467763158" xlink:href="#me8dbda9127" y="179.2609375"/>
      </g>
     </g>
     <g id="line2d_33">
      <g>
       <use style="fill:#fffff0;stroke:#fffff0;" x="369.467763158" xlink:href="#me8dbda9127" y="11.8609375"/>
      </g>
     </g>
     <g id="text_11">
      <!-- seawater -->
      <g style="fill:#fffff0;" transform="translate(372.053700658 226.390625)rotate(-90.0)scale(0.1 -0.1)">
       <use xlink:href="#LiberationSans-73"/>
       <use x="50.0" xlink:href="#LiberationSans-65"/>
       <use x="105.615234375" xlink:href="#LiberationSans-61"/>
       <use x="161.23046875" xlink:href="#LiberationSans-77"/>
       <use x="233.447265625" xlink:href="#LiberationSans-61"/>
       <use x="289.0625" xlink:href="#LiberationSans-74"/>
       <use x="316.845703125" xlink:href="#LiberationSans-65"/>
       <use x="372.4609375" xlink:href="#LiberationSans-72"/>
      </g>
     </g>
    </g>
    <g id="xtick_12">
     <g id="line2d_34">
      <path clip-path="url(#pd1f42f6685)" d="
M401.773 179.261
L401.773 11.8609" style="fill:none;stroke:#ffffff;stroke-linecap:round;"/>
     </g>
     <g id="line2d_35">
      <g>
       <use style="fill:#fffff0;stroke:#fffff0;" x="401.773026316" xlink:href="#me8dbda9127" y="179.2609375"/>
      </g>
     </g>
     <g id="line2d_36">
      <g>
       <use style="fill:#fffff0;stroke:#fffff0;" x="401.773026316" xlink:href="#me8dbda9127" y="11.8609375"/>
      </g>
     </g>
     <g id="text_12">
      <!-- pyke -->
      <defs>
       <path d="
M39.8438 0
L21.9688 24.125
L15.5312 18.7969
L15.5312 0
L6.73438 0
L6.73438 72.4688
L15.5312 72.4688
L15.5312 27.2031
L38.7188 52.8281
L49.0312 52.8281
L27.5938 30.125
L50.1406 0
z
" id="LiberationSans-6b"/>
      </defs>
      <g style="fill:#fffff0;" transform="translate(404.358963816 206.29375)rotate(-90.0)scale(0.1 -0.1)">
       <use xlink:href="#LiberationSans-70"/>
       <use x="55.615234375" xlink:href="#LiberationSans-79"/>
       <use x="105.615234375" xlink:href="#LiberationSans-6b"/>
       <use x="155.615234375" xlink:href="#LiberationSans-65"/>
      </g>
     </g>
    </g>
    <g id="xtick_13">
     <g id="line2d_37">
      <path clip-path="url(#pd1f42f6685)" d="
M434.078 179.261
L434.078 11.8609" style="fill:none;stroke:#ffffff;stroke-linecap:round;"/>
     </g>
     <g id="line2d_38">
      <g>
       <use style="fill:#fffff0;stroke:#fffff0;" x="434.078289474" xlink:href="#me8dbda9127" y="179.2609375"/>
      </g>
     </g>
     <g id="line2d_39">
      <g>
       <use style="fill:#fffff0;stroke:#fffff0;" x="434.078289474" xlink:href="#me8dbda9127" y="11.8609375"/>
      </g>
     </g>
     <g id="text_13">
      <!-- iris -->
      <g style="fill:#fffff0;" transform="translate(436.664226974 198.0046875)rotate(-90.0)scale(0.1 -0.1)">
       <use xlink:href="#LiberationSans-69"/>
       <use x="22.216796875" xlink:href="#LiberationSans-72"/>
       <use x="55.517578125" xlink:href="#LiberationSans-69"/>
       <use x="77.734375" xlink:href="#LiberationSans-73"/>
      </g>
     </g>
    </g>
    <g id="xtick_14">
     <g id="line2d_40">
      <path clip-path="url(#pd1f42f6685)" d="
M466.384 179.261
L466.384 11.8609" style="fill:none;stroke:#ffffff;stroke-linecap:round;"/>
     </g>
     <g id="line2d_41">
      <g>
       <use style="fill:#fffff0;stroke:#fffff0;" x="466.383552632" xlink:href="#me8dbda9127" y="179.2609375"/>
      </g>
     </g>
     <g id="line2d_42">
      <g>
       <use style="fill:#fffff0;stroke:#fffff0;" x="466.383552632" xlink:href="#me8dbda9127" y="11.8609375"/>
      </g>
     </g>
     <g id="text_14">
      <!-- pyproj -->
      <g style="fill:#fffff0;" transform="translate(468.969490132 212.1765625)rotate(-90.0)scale(0.1 -0.1)">
       <use xlink:href="#LiberationSans-70"/>
       <use x="55.615234375" xlink:href="#LiberationSans-79"/>
       <use x="105.615234375" xlink:href="#LiberationSans-70"/>
       <use x="161.23046875" xlink:href="#LiberationSans-72"/>
       <use x="194.53125" xlink:href="#LiberationSans-6f"/>
       <use x="250.146484375" xlink:href="#LiberationSans-6a"/>
      </g>
     </g>
    </g>
    <g id="xtick_15">
     <g id="line2d_43">
      <path clip-path="url(#pd1f42f6685)" d="
M498.689 179.261
L498.689 11.8609" style="fill:none;stroke:#ffffff;stroke-linecap:round;"/>
     </g>
     <g id="line2d_44">
      <g>
       <use style="fill:#fffff0;stroke:#fffff0;" x="498.688815789" xlink:href="#me8dbda9127" y="179.2609375"/>
      </g>
     </g>
     <g id="line2d_45">
      <g>
       <use style="fill:#fffff0;stroke:#fffff0;" x="498.688815789" xlink:href="#me8dbda9127" y="11.8609375"/>
      </g>
     </g>
     <g id="text_15">
      <!-- jasper -->
      <g style="fill:#fffff0;" transform="translate(501.274753289 213.5734375)rotate(-90.0)scale(0.1 -0.1)">
       <use xlink:href="#LiberationSans-6a"/>
       <use x="22.216796875" xlink:href="#LiberationSans-61"/>
       <use x="77.83203125" xlink:href="#LiberationSans-73"/>
       <use x="127.83203125" xlink:href="#LiberationSans-70"/>
       <use x="183.447265625" xlink:href="#LiberationSans-65"/>
       <use x="239.0625" xlink:href="#LiberationSans-72"/>
      </g>
     </g>
    </g>
    <g id="xtick_16">
     <g id="line2d_46">
      <path clip-path="url(#pd1f42f6685)" d="
M530.994 179.261
L530.994 11.8609" style="fill:none;stroke:#ffffff;stroke-linecap:round;"/>
     </g>
     <g id="line2d_47">
      <g>
       <use style="fill:#fffff0;stroke:#fffff0;" x="530.994078947" xlink:href="#me8dbda9127" y="179.2609375"/>
      </g>
     </g>
     <g id="line2d_48">
      <g>
       <use style="fill:#fffff0;stroke:#fffff0;" x="530.994078947" xlink:href="#me8dbda9127" y="11.8609375"/>
      </g>
     </g>
     <g id="text_16">
      <!-- beautifulsoup4 -->
      <defs>
       <path d="
M17.625 46.4375
L17.625 0
L8.84375 0
L8.84375 46.4375
L1.42188 46.4375
L1.42188 52.8281
L8.84375 52.8281
L8.84375 58.7969
Q8.84375 61.6719 9.375 64.1406
Q9.90625 66.6094 11.3438 68.4375
Q12.7969 70.2656 15.2812 71.3125
Q17.7812 72.3594 21.7344 72.3594
Q23.2969 72.3594 24.9688 72.2188
Q26.6562 72.0781 27.9375 71.7812
L27.9375 65.0938
Q27.0938 65.2344 26 65.3594
Q24.9062 65.4844 24.0312 65.4844
Q22.0781 65.4844 20.8281 64.9375
Q19.5781 64.4062 18.875 63.4062
Q18.1719 62.4062 17.8906 60.9375
Q17.625 59.4688 17.625 57.5625
L17.625 52.8281
L27.9375 52.8281
L27.9375 46.4375
z
" id="LiberationSans-66"/>
      </defs>
      <g style="fill:#fffff0;" transform="translate(533.580016447 250.371875)rotate(-90.0)scale(0.1 -0.1)">
       <use xlink:href="#LiberationSans-62"/>
       <use x="55.615234375" xlink:href="#LiberationSans-65"/>
       <use x="111.23046875" xlink:href="#LiberationSans-61"/>
       <use x="166.845703125" xlink:href="#LiberationSans-75"/>
       <use x="222.4609375" xlink:href="#LiberationSans-74"/>
       <use x="250.244140625" xlink:href="#LiberationSans-69"/>
       <use x="272.4609375" xlink:href="#LiberationSans-66"/>
       <use x="300.244140625" xlink:href="#LiberationSans-75"/>
       <use x="355.859375" xlink:href="#LiberationSans-6c"/>
       <use x="378.076171875" xlink:href="#LiberationSans-73"/>
       <use x="428.076171875" xlink:href="#LiberationSans-6f"/>
       <use x="483.69140625" xlink:href="#LiberationSans-75"/>
       <use x="539.306640625" xlink:href="#LiberationSans-70"/>
       <use x="594.921875" xlink:href="#LiberationSans-34"/>
      </g>
     </g>
    </g>
    <g id="xtick_17">
     <g id="line2d_49">
      <path clip-path="url(#pd1f42f6685)" d="
M563.299 179.261
L563.299 11.8609" style="fill:none;stroke:#ffffff;stroke-linecap:round;"/>
     </g>
     <g id="line2d_50">
      <g>
       <use style="fill:#fffff0;stroke:#fffff0;" x="563.299342105" xlink:href="#me8dbda9127" y="179.2609375"/>
      </g>
     </g>
     <g id="line2d_51">
      <g>
       <use style="fill:#fffff0;stroke:#fffff0;" x="563.299342105" xlink:href="#me8dbda9127" y="11.8609375"/>
      </g>
     </g>
     <g id="text_17">
      <!-- ecmwf_grib -->
      <defs>
       <path d="
M37.5 0
L37.5 33.5
Q37.5 37.3594 37.0156 39.9375
Q36.5312 42.5312 35.375 44.1094
Q34.2344 45.7031 32.375 46.3594
Q30.5156 47.0156 27.8281 47.0156
Q25.0469 47.0156 22.7969 45.9219
Q20.5625 44.8281 18.9688 42.75
Q17.3906 40.6719 16.5312 37.625
Q15.6719 34.5781 15.6719 30.6094
L15.6719 0
L6.9375 0
L6.9375 41.5469
Q6.9375 43.2188 6.90625 45.0469
Q6.89062 46.875 6.82812 48.5
Q6.78125 50.1406 6.73438 51.3125
Q6.6875 52.4844 6.64062 52.8281
L14.9375 52.8281
Q14.9844 52.5938 15.0312 51.5156
Q15.0938 50.4375 15.1562 49.0469
Q15.2344 47.6562 15.2812 46.2188
Q15.3281 44.7812 15.3281 43.7969
L15.4844 43.7969
Q16.6562 46.0938 18.0156 47.9531
Q19.3906 49.8125 21.2188 51.0938
Q23.0469 52.3906 25.4062 53.0938
Q27.7812 53.8125 30.9062 53.8125
Q36.9219 53.8125 40.4062 51.4219
Q43.8906 49.0312 45.2656 43.7969
L45.4062 43.7969
Q46.5781 46.0938 48.0469 47.9531
Q49.5156 49.8125 51.4688 51.0938
Q53.4219 52.3906 55.8594 53.0938
Q58.2969 53.8125 61.4219 53.8125
Q65.4375 53.8125 68.3281 52.7344
Q71.2344 51.6562 73.0938 49.4062
Q74.9531 47.1719 75.8281 43.625
Q76.7031 40.0938 76.7031 35.2031
L76.7031 0
L68.0156 0
L68.0156 33.5
Q68.0156 37.3594 67.5312 39.9375
Q67.0469 42.5312 65.8906 44.1094
Q64.75 45.7031 62.8906 46.3594
Q61.0312 47.0156 58.3438 47.0156
Q55.5625 47.0156 53.3125 45.9688
Q51.0781 44.9219 49.4844 42.875
Q47.9062 40.8281 47.0469 37.75
Q46.1875 34.6719 46.1875 30.6094
L46.1875 0
z
" id="LiberationSans-6d"/>
       <path d="
M-1.51562 -19.875
L-1.51562 -13.5312
L56.7344 -13.5312
L56.7344 -19.875
z
" id="LiberationSans-5f"/>
      </defs>
      <g style="fill:#fffff0;" transform="translate(565.885279605 236.5421875)rotate(-90.0)scale(0.1 -0.1)">
       <use xlink:href="#LiberationSans-65"/>
       <use x="55.615234375" xlink:href="#LiberationSans-63"/>
       <use x="105.615234375" xlink:href="#LiberationSans-6d"/>
       <use x="188.916015625" xlink:href="#LiberationSans-77"/>
       <use x="261.1328125" xlink:href="#LiberationSans-66"/>
       <use x="288.916015625" xlink:href="#LiberationSans-5f"/>
       <use x="344.53125" xlink:href="#LiberationSans-67"/>
       <use x="400.146484375" xlink:href="#LiberationSans-72"/>
       <use x="433.447265625" xlink:href="#LiberationSans-69"/>
       <use x="455.6640625" xlink:href="#LiberationSans-62"/>
      </g>
     </g>
    </g>
    <g id="xtick_18">
     <g id="line2d_52">
      <path clip-path="url(#pd1f42f6685)" d="
M595.605 179.261
L595.605 11.8609" style="fill:none;stroke:#ffffff;stroke-linecap:round;"/>
     </g>
     <g id="line2d_53">
      <g>
       <use style="fill:#fffff0;stroke:#fffff0;" x="595.604605263" xlink:href="#me8dbda9127" y="179.2609375"/>
      </g>
     </g>
     <g id="line2d_54">
      <g>
       <use style="fill:#fffff0;stroke:#fffff0;" x="595.604605263" xlink:href="#me8dbda9127" y="11.8609375"/>
      </g>
     </g>
     <g id="text_18">
      <!-- ctd -->
      <g style="fill:#fffff0;" transform="translate(598.190542763 198.53125)rotate(-90.0)scale(0.1 -0.1)">
       <use xlink:href="#LiberationSans-63"/>
       <use x="50.0" xlink:href="#LiberationSans-74"/>
       <use x="77.783203125" xlink:href="#LiberationSans-64"/>
      </g>
     </g>
    </g>
    <g id="xtick_19">
     <g id="line2d_55">
      <path clip-path="url(#pd1f42f6685)" d="
M627.91 179.261
L627.91 11.8609" style="fill:none;stroke:#ffffff;stroke-linecap:round;"/>
     </g>
     <g id="line2d_56">
      <g>
       <use style="fill:#fffff0;stroke:#fffff0;" x="627.909868421" xlink:href="#me8dbda9127" y="179.2609375"/>
      </g>
     </g>
     <g id="line2d_57">
      <g>
       <use style="fill:#fffff0;stroke:#fffff0;" x="627.909868421" xlink:href="#me8dbda9127" y="11.8609375"/>
      </g>
     </g>
     <g id="text_19">
      <!-- biggus -->
      <g style="fill:#fffff0;" transform="translate(630.495805921 214.7203125)rotate(-90.0)scale(0.1 -0.1)">
       <use xlink:href="#LiberationSans-62"/>
       <use x="55.615234375" xlink:href="#LiberationSans-69"/>
       <use x="77.83203125" xlink:href="#LiberationSans-67"/>
       <use x="133.447265625" xlink:href="#LiberationSans-67"/>
       <use x="189.0625" xlink:href="#LiberationSans-75"/>
       <use x="244.677734375" xlink:href="#LiberationSans-73"/>
      </g>
     </g>
    </g>
   </g>
   <g id="matplotlib.axis_2">
    <g id="ytick_1">
     <g id="line2d_58">
      <path clip-path="url(#pd1f42f6685)" d="
M30.2625 179.261
L644.063 179.261" style="fill:none;stroke:#ffffff;stroke-linecap:round;"/>
     </g>
     <g id="line2d_59">
      <g>
       <use style="fill:#fffff0;stroke:#fffff0;" x="30.2625" xlink:href="#me8dbda9127" y="179.2609375"/>
      </g>
     </g>
     <g id="line2d_60">
      <g>
       <use style="fill:#fffff0;stroke:#fffff0;" x="644.0625" xlink:href="#me8dbda9127" y="179.2609375"/>
      </g>
     </g>
     <g id="text_20">
      <!-- 0 -->
      <defs>
       <path d="
M51.7031 34.4219
Q51.7031 24.5156 49.8281 17.75
Q47.9531 10.9844 44.7031 6.8125
Q41.4531 2.64062 37.0625 0.828125
Q32.6719 -0.984375 27.6875 -0.984375
Q22.6562 -0.984375 18.3125 0.828125
Q13.9688 2.64062 10.7656 6.78125
Q7.5625 10.9375 5.73438 17.7031
Q3.90625 24.4688 3.90625 34.4219
Q3.90625 44.8281 5.73438 51.6406
Q7.5625 58.4531 10.7812 62.5
Q14.0156 66.5469 18.4062 68.1875
Q22.7969 69.8281 27.9844 69.8281
Q32.9062 69.8281 37.2188 68.1875
Q41.5469 66.5469 44.7656 62.5
Q48 58.4531 49.8438 51.6406
Q51.7031 44.8281 51.7031 34.4219
M42.7812 34.4219
Q42.7812 42.625 41.7969 48.0625
Q40.8281 53.5156 38.9219 56.7656
Q37.0156 60.0156 34.25 61.3594
Q31.5 62.7031 27.9844 62.7031
Q24.2656 62.7031 21.4375 61.3281
Q18.6094 59.9688 16.6719 56.7188
Q14.75 53.4688 13.7656 48.0156
Q12.7969 42.5781 12.7969 34.4219
Q12.7969 26.5156 13.7969 21.0938
Q14.7969 15.6719 16.7188 12.375
Q18.6562 9.07812 21.4375 7.64062
Q24.2188 6.20312 27.7812 6.20312
Q31.25 6.20312 34.0312 7.64062
Q36.8125 9.07812 38.7344 12.375
Q40.6719 15.6719 41.7188 21.0938
Q42.7812 26.5156 42.7812 34.4219" id="LiberationSans-30"/>
      </defs>
      <g style="fill:#fffff0;" transform="translate(18.4828125 181.846875)scale(0.1 -0.1)">
       <use xlink:href="#LiberationSans-30"/>
      </g>
     </g>
    </g>
    <g id="ytick_2">
     <g id="line2d_61">
      <path clip-path="url(#pd1f42f6685)" d="
M30.2625 155.347
L644.063 155.347" style="fill:none;stroke:#ffffff;stroke-linecap:round;"/>
     </g>
     <g id="line2d_62">
      <g>
       <use style="fill:#fffff0;stroke:#fffff0;" x="30.2625" xlink:href="#me8dbda9127" y="155.346651786"/>
      </g>
     </g>
     <g id="line2d_63">
      <g>
       <use style="fill:#fffff0;stroke:#fffff0;" x="644.0625" xlink:href="#me8dbda9127" y="155.346651786"/>
      </g>
     </g>
     <g id="text_21">
      <!-- 100 -->
      <defs>
       <path d="
M7.625 0
L7.625 7.46875
L25.1406 7.46875
L25.1406 60.4062
L9.625 49.3125
L9.625 57.625
L25.875 68.7969
L33.9844 68.7969
L33.9844 7.46875
L50.7344 7.46875
L50.7344 0
z
" id="LiberationSans-31"/>
      </defs>
      <g style="fill:#fffff0;" transform="translate(7.7328125 157.932589286)scale(0.1 -0.1)">
       <use xlink:href="#LiberationSans-31"/>
       <use x="55.615234375" xlink:href="#LiberationSans-30"/>
       <use x="111.23046875" xlink:href="#LiberationSans-30"/>
      </g>
     </g>
    </g>
    <g id="ytick_3">
     <g id="line2d_64">
      <path clip-path="url(#pd1f42f6685)" d="
M30.2625 131.432
L644.063 131.432" style="fill:none;stroke:#ffffff;stroke-linecap:round;"/>
     </g>
     <g id="line2d_65">
      <g>
       <use style="fill:#fffff0;stroke:#fffff0;" x="30.2625" xlink:href="#me8dbda9127" y="131.432366071"/>
      </g>
     </g>
     <g id="line2d_66">
      <g>
       <use style="fill:#fffff0;stroke:#fffff0;" x="644.0625" xlink:href="#me8dbda9127" y="131.432366071"/>
      </g>
     </g>
     <g id="text_22">
      <!-- 200 -->
      <g style="fill:#fffff0;" transform="translate(7.4734375 134.018303571)scale(0.1 -0.1)">
       <use xlink:href="#LiberationSans-32"/>
       <use x="55.615234375" xlink:href="#LiberationSans-30"/>
       <use x="111.23046875" xlink:href="#LiberationSans-30"/>
      </g>
     </g>
    </g>
    <g id="ytick_4">
     <g id="line2d_67">
      <path clip-path="url(#pd1f42f6685)" d="
M30.2625 107.518
L644.063 107.518" style="fill:none;stroke:#ffffff;stroke-linecap:round;"/>
     </g>
     <g id="line2d_68">
      <g>
       <use style="fill:#fffff0;stroke:#fffff0;" x="30.2625" xlink:href="#me8dbda9127" y="107.518080357"/>
      </g>
     </g>
     <g id="line2d_69">
      <g>
       <use style="fill:#fffff0;stroke:#fffff0;" x="644.0625" xlink:href="#me8dbda9127" y="107.518080357"/>
      </g>
     </g>
     <g id="text_23">
      <!-- 300 -->
      <defs>
       <path d="
M51.2188 19
Q51.2188 14.2656 49.6719 10.5469
Q48.1406 6.84375 45.1875 4.26562
Q42.2344 1.70312 37.8594 0.359375
Q33.5 -0.984375 27.875 -0.984375
Q21.4844 -0.984375 17.1094 0.609375
Q12.75 2.20312 9.90625 4.8125
Q7.07812 7.42188 5.65625 10.7656
Q4.25 14.1094 3.8125 17.6719
L12.8906 18.5
Q13.2812 15.7656 14.3281 13.5156
Q15.375 11.2812 17.1875 9.67188
Q19 8.0625 21.625 7.17188
Q24.2656 6.29688 27.875 6.29688
Q34.5156 6.29688 38.2969 9.5625
Q42.0938 12.8438 42.0938 19.2812
Q42.0938 23.0938 40.4062 25.4062
Q38.7188 27.7344 36.2031 29.0312
Q33.6875 30.3281 30.7344 30.7656
Q27.7812 31.2031 25.2969 31.2031
L20.3125 31.2031
L20.3125 38.8125
L25.0938 38.8125
Q27.5938 38.8125 30.2656 39.3281
Q32.9531 39.8438 35.1719 41.1875
Q37.4062 42.5312 38.8438 44.8281
Q40.2812 47.125 40.2812 50.6875
Q40.2812 56.2031 37.0312 59.3906
Q33.7969 62.5938 27.3906 62.5938
Q21.5781 62.5938 17.9844 59.6094
Q14.4062 56.6406 13.8125 51.2188
L4.98438 51.9062
Q5.51562 56.4531 7.46875 59.8125
Q9.42188 63.1875 12.4219 65.4062
Q15.4375 67.625 19.2812 68.7188
Q23.1406 69.8281 27.4844 69.8281
Q33.25 69.8281 37.3906 68.375
Q41.5469 66.9375 44.1875 64.4688
Q46.8281 62.0156 48.0625 58.6875
Q49.3125 55.375 49.3125 51.6094
Q49.3125 48.5781 48.4844 45.9375
Q47.6562 43.3125 45.8906 41.2031
Q44.1406 39.1094 41.4219 37.5938
Q38.7188 36.0781 34.9062 35.2969
L34.9062 35.1094
Q39.0625 34.6719 42.1406 33.2188
Q45.2188 31.7812 47.2188 29.625
Q49.2188 27.4844 50.2188 24.75
Q51.2188 22.0156 51.2188 19" id="LiberationSans-33"/>
      </defs>
      <g style="fill:#fffff0;" transform="translate(7.3515625 110.104017857)scale(0.1 -0.1)">
       <use xlink:href="#LiberationSans-33"/>
       <use x="55.615234375" xlink:href="#LiberationSans-30"/>
       <use x="111.23046875" xlink:href="#LiberationSans-30"/>
      </g>
     </g>
    </g>
    <g id="ytick_5">
     <g id="line2d_70">
      <path clip-path="url(#pd1f42f6685)" d="
M30.2625 83.6038
L644.063 83.6038" style="fill:none;stroke:#ffffff;stroke-linecap:round;"/>
     </g>
     <g id="line2d_71">
      <g>
       <use style="fill:#fffff0;stroke:#fffff0;" x="30.2625" xlink:href="#me8dbda9127" y="83.6037946429"/>
      </g>
     </g>
     <g id="line2d_72">
      <g>
       <use style="fill:#fffff0;stroke:#fffff0;" x="644.0625" xlink:href="#me8dbda9127" y="83.6037946429"/>
      </g>
     </g>
     <g id="text_24">
      <!-- 400 -->
      <g style="fill:#fffff0;" transform="translate(7.2 86.1897321429)scale(0.1 -0.1)">
       <use xlink:href="#LiberationSans-34"/>
       <use x="55.615234375" xlink:href="#LiberationSans-30"/>
       <use x="111.23046875" xlink:href="#LiberationSans-30"/>
      </g>
     </g>
    </g>
    <g id="ytick_6">
     <g id="line2d_73">
      <path clip-path="url(#pd1f42f6685)" d="
M30.2625 59.6895
L644.063 59.6895" style="fill:none;stroke:#ffffff;stroke-linecap:round;"/>
     </g>
     <g id="line2d_74">
      <g>
       <use style="fill:#fffff0;stroke:#fffff0;" x="30.2625" xlink:href="#me8dbda9127" y="59.6895089286"/>
      </g>
     </g>
     <g id="line2d_75">
      <g>
       <use style="fill:#fffff0;stroke:#fffff0;" x="644.0625" xlink:href="#me8dbda9127" y="59.6895089286"/>
      </g>
     </g>
     <g id="text_25">
      <!-- 500 -->
      <defs>
       <path d="
M51.4219 22.4062
Q51.4219 17.2344 49.8594 12.9375
Q48.2969 8.64062 45.2188 5.53125
Q42.1406 2.4375 37.5781 0.71875
Q33.0156 -0.984375 27 -0.984375
Q21.5781 -0.984375 17.5469 0.28125
Q13.5312 1.5625 10.7344 3.78125
Q7.95312 6 6.3125 8.98438
Q4.6875 11.9688 4 15.375
L12.8906 16.4062
Q13.4219 14.4531 14.3906 12.625
Q15.375 10.7969 17.0625 9.34375
Q18.75 7.90625 21.2188 7.04688
Q23.6875 6.20312 27.2031 6.20312
Q30.6094 6.20312 33.3906 7.25
Q36.1875 8.29688 38.1562 10.3438
Q40.1406 12.4062 41.2031 15.375
Q42.2812 18.3594 42.2812 22.2188
Q42.2812 25.3906 41.25 28.0469
Q40.2344 30.7188 38.3281 32.6406
Q36.4219 34.5781 33.6562 35.6406
Q30.9062 36.7188 27.3906 36.7188
Q25.2031 36.7188 23.3438 36.3281
Q21.4844 35.9375 19.8906 35.25
Q18.3125 34.5781 17.0156 33.6719
Q15.7188 32.7656 14.5938 31.7812
L6 31.7812
L8.29688 68.7969
L47.4062 68.7969
L47.4062 61.3281
L16.3125 61.3281
L14.9844 39.5
Q17.3281 41.3125 20.8438 42.5938
Q24.3594 43.8906 29.2031 43.8906
Q34.3281 43.8906 38.4219 42.3281
Q42.5312 40.7656 45.4062 37.9062
Q48.2969 35.0625 49.8594 31.1094
Q51.4219 27.1562 51.4219 22.4062" id="LiberationSans-35"/>
      </defs>
      <g style="fill:#fffff0;" transform="translate(7.3703125 62.2754464286)scale(0.1 -0.1)">
       <use xlink:href="#LiberationSans-35"/>
       <use x="55.615234375" xlink:href="#LiberationSans-30"/>
       <use x="111.23046875" xlink:href="#LiberationSans-30"/>
      </g>
     </g>
    </g>
    <g id="ytick_7">
     <g id="line2d_76">
      <path clip-path="url(#pd1f42f6685)" d="
M30.2625 35.7752
L644.063 35.7752" style="fill:none;stroke:#ffffff;stroke-linecap:round;"/>
     </g>
     <g id="line2d_77">
      <g>
       <use style="fill:#fffff0;stroke:#fffff0;" x="30.2625" xlink:href="#me8dbda9127" y="35.7752232143"/>
      </g>
     </g>
     <g id="line2d_78">
      <g>
       <use style="fill:#fffff0;stroke:#fffff0;" x="644.0625" xlink:href="#me8dbda9127" y="35.7752232143"/>
      </g>
     </g>
     <g id="text_26">
      <!-- 600 -->
      <defs>
       <path d="
M51.2188 22.5156
Q51.2188 17.3281 49.7812 13
Q48.3438 8.6875 45.5312 5.57812
Q42.7188 2.48438 38.5625 0.75
Q34.4219 -0.984375 29 -0.984375
Q23 -0.984375 18.5 1.3125
Q14.0156 3.60938 11.0312 7.92188
Q8.0625 12.25 6.5625 18.5312
Q5.07812 24.8125 5.07812 32.8125
Q5.07812 42 6.76562 48.9219
Q8.45312 55.8594 11.625 60.5
Q14.7969 65.1406 19.3594 67.4844
Q23.9219 69.8281 29.6875 69.8281
Q33.2031 69.8281 36.2812 69.0938
Q39.3594 68.3594 41.875 66.7188
Q44.3906 65.0938 46.2812 62.4062
Q48.1875 59.7188 49.3125 55.8125
L40.9219 54.2969
Q39.5469 58.7344 36.5469 60.7188
Q33.5469 62.7031 29.5938 62.7031
Q25.9844 62.7031 23.0469 60.9844
Q20.125 59.2812 18.0625 55.875
Q16.0156 52.4844 14.9062 47.3594
Q13.8125 42.2344 13.8125 35.4062
Q16.2188 39.8438 20.5625 42.1562
Q24.9062 44.4844 30.5156 44.4844
Q35.2031 44.4844 39.0156 42.9688
Q42.8281 41.4531 45.5312 38.5938
Q48.25 35.75 49.7344 31.6719
Q51.2188 27.5938 51.2188 22.5156
M42.2812 22.125
Q42.2812 25.6875 41.4062 28.5625
Q40.5312 31.4531 38.7656 33.4688
Q37.0156 35.5 34.4219 36.5938
Q31.8438 37.7031 28.4219 37.7031
Q26.0312 37.7031 23.5781 36.9844
Q21.1406 36.2812 19.1562 34.6875
Q17.1875 33.1094 15.9375 30.5156
Q14.7031 27.9375 14.7031 24.2188
Q14.7031 20.4062 15.6719 17.1094
Q16.6562 13.8125 18.4844 11.375
Q20.3125 8.9375 22.8906 7.51562
Q25.4844 6.10938 28.7188 6.10938
Q31.8906 6.10938 34.4062 7.20312
Q36.9219 8.29688 38.6719 10.375
Q40.4375 12.4531 41.3594 15.4219
Q42.2812 18.4062 42.2812 22.125" id="LiberationSans-36"/>
      </defs>
      <g style="fill:#fffff0;" transform="translate(7.478125 38.3611607143)scale(0.1 -0.1)">
       <use xlink:href="#LiberationSans-36"/>
       <use x="55.615234375" xlink:href="#LiberationSans-30"/>
       <use x="111.23046875" xlink:href="#LiberationSans-30"/>
      </g>
     </g>
    </g>
    <g id="ytick_8">
     <g id="line2d_79">
      <path clip-path="url(#pd1f42f6685)" d="
M30.2625 11.8609
L644.063 11.8609" style="fill:none;stroke:#ffffff;stroke-linecap:round;"/>
     </g>
     <g id="line2d_80">
      <g>
       <use style="fill:#fffff0;stroke:#fffff0;" x="30.2625" xlink:href="#me8dbda9127" y="11.8609375"/>
      </g>
     </g>
     <g id="line2d_81">
      <g>
       <use style="fill:#fffff0;stroke:#fffff0;" x="644.0625" xlink:href="#me8dbda9127" y="11.8609375"/>
      </g>
     </g>
     <g id="text_27">
      <!-- 700 -->
      <defs>
       <path d="
M50.5938 61.6719
Q45.4062 53.7656 41.0625 46.4531
Q36.7188 39.1562 33.5938 31.75
Q30.4688 24.3594 28.7344 16.5781
Q27 8.79688 27 0
L17.8281 0
Q17.8281 8.25 19.7812 16.1875
Q21.7344 24.125 25.0469 31.7656
Q28.375 39.4062 32.7656 46.7812
Q37.1562 54.1562 42.0938 61.3281
L5.125 61.3281
L5.125 68.7969
L50.5938 68.7969
z
" id="LiberationSans-37"/>
      </defs>
      <g style="fill:#fffff0;" transform="translate(7.4828125 14.446875)scale(0.1 -0.1)">
       <use xlink:href="#LiberationSans-37"/>
       <use x="55.615234375" xlink:href="#LiberationSans-30"/>
       <use x="111.23046875" xlink:href="#LiberationSans-30"/>
      </g>
     </g>
    </g>
   </g>
   <g id="patch_3">
    <path clip-path="url(#pd1f42f6685)" d="
M38.3388 179.261
L54.4914 179.261
L54.4914 178.544
L38.3388 178.544
z
" style="fill:#4c72b0;stroke:#000000;stroke-linejoin:miter;stroke-width:0.3;"/>
   </g>
   <g id="patch_4">
    <path clip-path="url(#pd1f42f6685)" d="
M70.6441 179.261
L86.7967 179.261
L86.7967 179.261
L70.6441 179.261
z
" style="fill:#4c72b0;stroke:#000000;stroke-linejoin:miter;stroke-width:0.3;"/>
   </g>
   <g id="patch_5">
    <path clip-path="url(#pd1f42f6685)" d="
M102.949 179.261
L119.102 179.261
L119.102 178.783
L102.949 178.783
z
" style="fill:#4c72b0;stroke:#000000;stroke-linejoin:miter;stroke-width:0.3;"/>
   </g>
   <g id="patch_6">
    <path clip-path="url(#pd1f42f6685)" d="
M135.255 179.261
L151.407 179.261
L151.407 179.022
L135.255 179.022
z
" style="fill:#4c72b0;stroke:#000000;stroke-linejoin:miter;stroke-width:0.3;"/>
   </g>
   <g id="patch_7">
    <path clip-path="url(#pd1f42f6685)" d="
M167.56 179.261
L183.712 179.261
L183.712 178.304
L167.56 178.304
z
" style="fill:#4c72b0;stroke:#000000;stroke-linejoin:miter;stroke-width:0.3;"/>
   </g>
   <g id="patch_8">
    <path clip-path="url(#pd1f42f6685)" d="
M199.865 179.261
L216.018 179.261
L216.018 179.261
L199.865 179.261
z
" style="fill:#4c72b0;stroke:#000000;stroke-linejoin:miter;stroke-width:0.3;"/>
   </g>
   <g id="patch_9">
    <path clip-path="url(#pd1f42f6685)" d="
M232.17 179.261
L248.323 179.261
L248.323 178.783
L232.17 178.783
z
" style="fill:#4c72b0;stroke:#000000;stroke-linejoin:miter;stroke-width:0.3;"/>
   </g>
   <g id="patch_10">
    <path clip-path="url(#pd1f42f6685)" d="
M264.476 179.261
L280.628 179.261
L280.628 179.261
L264.476 179.261
z
" style="fill:#4c72b0;stroke:#000000;stroke-linejoin:miter;stroke-width:0.3;"/>
   </g>
   <g id="patch_11">
    <path clip-path="url(#pd1f42f6685)" d="
M296.781 179.261
L312.934 179.261
L312.934 179.022
L296.781 179.022
z
" style="fill:#4c72b0;stroke:#000000;stroke-linejoin:miter;stroke-width:0.3;"/>
   </g>
   <g id="patch_12">
    <path clip-path="url(#pd1f42f6685)" d="
M329.086 179.261
L345.239 179.261
L345.239 179.022
L329.086 179.022
z
" style="fill:#4c72b0;stroke:#000000;stroke-linejoin:miter;stroke-width:0.3;"/>
   </g>
   <g id="patch_13">
    <path clip-path="url(#pd1f42f6685)" d="
M361.391 179.261
L377.544 179.261
L377.544 179.022
L361.391 179.022
z
" style="fill:#4c72b0;stroke:#000000;stroke-linejoin:miter;stroke-width:0.3;"/>
   </g>
   <g id="patch_14">
    <path clip-path="url(#pd1f42f6685)" d="
M393.697 179.261
L409.849 179.261
L409.849 179.022
L393.697 179.022
z
" style="fill:#4c72b0;stroke:#000000;stroke-linejoin:miter;stroke-width:0.3;"/>
   </g>
   <g id="patch_15">
    <path clip-path="url(#pd1f42f6685)" d="
M426.002 179.261
L442.155 179.261
L442.155 179.022
L426.002 179.022
z
" style="fill:#4c72b0;stroke:#000000;stroke-linejoin:miter;stroke-width:0.3;"/>
   </g>
   <g id="patch_16">
    <path clip-path="url(#pd1f42f6685)" d="
M458.307 179.261
L474.46 179.261
L474.46 179.022
L458.307 179.022
z
" style="fill:#4c72b0;stroke:#000000;stroke-linejoin:miter;stroke-width:0.3;"/>
   </g>
   <g id="patch_17">
    <path clip-path="url(#pd1f42f6685)" d="
M490.612 179.261
L506.765 179.261
L506.765 178.783
L490.612 178.783
z
" style="fill:#4c72b0;stroke:#000000;stroke-linejoin:miter;stroke-width:0.3;"/>
   </g>
   <g id="patch_18">
    <path clip-path="url(#pd1f42f6685)" d="
M522.918 179.261
L539.07 179.261
L539.07 178.544
L522.918 178.544
z
" style="fill:#4c72b0;stroke:#000000;stroke-linejoin:miter;stroke-width:0.3;"/>
   </g>
   <g id="patch_19">
    <path clip-path="url(#pd1f42f6685)" d="
M555.223 179.261
L571.376 179.261
L571.376 179.022
L555.223 179.022
z
" style="fill:#4c72b0;stroke:#000000;stroke-linejoin:miter;stroke-width:0.3;"/>
   </g>
   <g id="patch_20">
    <path clip-path="url(#pd1f42f6685)" d="
M587.528 179.261
L603.681 179.261
L603.681 179.022
L587.528 179.022
z
" style="fill:#4c72b0;stroke:#000000;stroke-linejoin:miter;stroke-width:0.3;"/>
   </g>
   <g id="patch_21">
    <path clip-path="url(#pd1f42f6685)" d="
M619.834 179.261
L635.986 179.261
L635.986 178.783
L619.834 178.783
z
" style="fill:#4c72b0;stroke:#000000;stroke-linejoin:miter;stroke-width:0.3;"/>
   </g>
   <g id="patch_22">
    <path clip-path="url(#pd1f42f6685)" d="
M38.3388 178.544
L54.4914 178.544
L54.4914 98.4307
L38.3388 98.4307
z
" style="fill:#55a868;stroke:#000000;stroke-linejoin:miter;stroke-width:0.3;"/>
   </g>
   <g id="patch_23">
    <path clip-path="url(#pd1f42f6685)" d="
M70.6441 179.261
L86.7967 179.261
L86.7967 153.673
L70.6441 153.673
z
" style="fill:#55a868;stroke:#000000;stroke-linejoin:miter;stroke-width:0.3;"/>
   </g>
   <g id="patch_24">
    <path clip-path="url(#pd1f42f6685)" d="
M102.949 178.783
L119.102 178.783
L119.102 139.324
L102.949 139.324
z
" style="fill:#55a868;stroke:#000000;stroke-linejoin:miter;stroke-width:0.3;"/>
   </g>
   <g id="patch_25">
    <path clip-path="url(#pd1f42f6685)" d="
M135.255 179.022
L151.407 179.022
L151.407 135.737
L135.255 135.737
z
" style="fill:#55a868;stroke:#000000;stroke-linejoin:miter;stroke-width:0.3;"/>
   </g>
   <g id="patch_26">
    <path clip-path="url(#pd1f42f6685)" d="
M167.56 178.304
L183.712 178.304
L183.712 125.215
L167.56 125.215
z
" style="fill:#55a868;stroke:#000000;stroke-linejoin:miter;stroke-width:0.3;"/>
   </g>
   <g id="patch_27">
    <path clip-path="url(#pd1f42f6685)" d="
M199.865 179.261
L216.018 179.261
L216.018 150.086
L199.865 150.086
z
" style="fill:#55a868;stroke:#000000;stroke-linejoin:miter;stroke-width:0.3;"/>
   </g>
   <g id="patch_28">
    <path clip-path="url(#pd1f42f6685)" d="
M232.17 178.783
L248.323 178.783
L248.323 159.89
L232.17 159.89
z
" style="fill:#55a868;stroke:#000000;stroke-linejoin:miter;stroke-width:0.3;"/>
   </g>
   <g id="patch_29">
    <path clip-path="url(#pd1f42f6685)" d="
M264.476 179.261
L280.628 179.261
L280.628 145.542
L264.476 145.542
z
" style="fill:#55a868;stroke:#000000;stroke-linejoin:miter;stroke-width:0.3;"/>
   </g>
   <g id="patch_30">
    <path clip-path="url(#pd1f42f6685)" d="
M296.781 179.022
L312.934 179.022
L312.934 158.456
L296.781 158.456
z
" style="fill:#55a868;stroke:#000000;stroke-linejoin:miter;stroke-width:0.3;"/>
   </g>
   <g id="patch_31">
    <path clip-path="url(#pd1f42f6685)" d="
M329.086 179.022
L345.239 179.022
L345.239 158.695
L329.086 158.695
z
" style="fill:#55a868;stroke:#000000;stroke-linejoin:miter;stroke-width:0.3;"/>
   </g>
   <g id="patch_32">
    <path clip-path="url(#pd1f42f6685)" d="
M361.391 179.022
L377.544 179.022
L377.544 153.912
L361.391 153.912
z
" style="fill:#55a868;stroke:#000000;stroke-linejoin:miter;stroke-width:0.3;"/>
   </g>
   <g id="patch_33">
    <path clip-path="url(#pd1f42f6685)" d="
M393.697 179.022
L409.849 179.022
L409.849 162.521
L393.697 162.521
z
" style="fill:#55a868;stroke:#000000;stroke-linejoin:miter;stroke-width:0.3;"/>
   </g>
   <g id="patch_34">
    <path clip-path="url(#pd1f42f6685)" d="
M426.002 179.022
L442.155 179.022
L442.155 152.238
L426.002 152.238
z
" style="fill:#55a868;stroke:#000000;stroke-linejoin:miter;stroke-width:0.3;"/>
   </g>
   <g id="patch_35">
    <path clip-path="url(#pd1f42f6685)" d="
M458.307 179.022
L474.46 179.022
L474.46 159.412
L458.307 159.412
z
" style="fill:#55a868;stroke:#000000;stroke-linejoin:miter;stroke-width:0.3;"/>
   </g>
   <g id="patch_36">
    <path clip-path="url(#pd1f42f6685)" d="
M490.612 178.783
L506.765 178.783
L506.765 143.629
L490.612 143.629
z
" style="fill:#55a868;stroke:#000000;stroke-linejoin:miter;stroke-width:0.3;"/>
   </g>
   <g id="patch_37">
    <path clip-path="url(#pd1f42f6685)" d="
M522.918 178.544
L539.07 178.544
L539.07 167.304
L522.918 167.304
z
" style="fill:#55a868;stroke:#000000;stroke-linejoin:miter;stroke-width:0.3;"/>
   </g>
   <g id="patch_38">
    <path clip-path="url(#pd1f42f6685)" d="
M555.223 179.022
L571.376 179.022
L571.376 146.259
L555.223 146.259
z
" style="fill:#55a868;stroke:#000000;stroke-linejoin:miter;stroke-width:0.3;"/>
   </g>
   <g id="patch_39">
    <path clip-path="url(#pd1f42f6685)" d="
M587.528 179.022
L603.681 179.022
L603.681 157.499
L587.528 157.499
z
" style="fill:#55a868;stroke:#000000;stroke-linejoin:miter;stroke-width:0.3;"/>
   </g>
   <g id="patch_40">
    <path clip-path="url(#pd1f42f6685)" d="
M619.834 178.783
L635.986 178.783
L635.986 161.564
L619.834 161.564
z
" style="fill:#55a868;stroke:#000000;stroke-linejoin:miter;stroke-width:0.3;"/>
   </g>
   <g id="patch_41">
    <path clip-path="url(#pd1f42f6685)" d="
M38.3388 98.4307
L54.4914 98.4307
L54.4914 62.7984
L38.3388 62.7984
z
" style="fill:#c44e52;stroke:#000000;stroke-linejoin:miter;stroke-width:0.3;"/>
   </g>
   <g id="patch_42">
    <path clip-path="url(#pd1f42f6685)" d="
M70.6441 153.673
L86.7967 153.673
L86.7967 140.998
L70.6441 140.998
z
" style="fill:#c44e52;stroke:#000000;stroke-linejoin:miter;stroke-width:0.3;"/>
   </g>
   <g id="patch_43">
    <path clip-path="url(#pd1f42f6685)" d="
M102.949 139.324
L119.102 139.324
L119.102 126.171
L102.949 126.171
z
" style="fill:#c44e52;stroke:#000000;stroke-linejoin:miter;stroke-width:0.3;"/>
   </g>
   <g id="patch_44">
    <path clip-path="url(#pd1f42f6685)" d="
M135.255 135.737
L151.407 135.737
L151.407 122.823
L135.255 122.823
z
" style="fill:#c44e52;stroke:#000000;stroke-linejoin:miter;stroke-width:0.3;"/>
   </g>
   <g id="patch_45">
    <path clip-path="url(#pd1f42f6685)" d="
M167.56 125.215
L183.712 125.215
L183.712 118.04
L167.56 118.04
z
" style="fill:#c44e52;stroke:#000000;stroke-linejoin:miter;stroke-width:0.3;"/>
   </g>
   <g id="patch_46">
    <path clip-path="url(#pd1f42f6685)" d="
M199.865 150.086
L216.018 150.086
L216.018 102.974
L199.865 102.974
z
" style="fill:#c44e52;stroke:#000000;stroke-linejoin:miter;stroke-width:0.3;"/>
   </g>
   <g id="patch_47">
    <path clip-path="url(#pd1f42f6685)" d="
M232.17 159.89
L248.323 159.89
L248.323 149.368
L232.17 149.368
z
" style="fill:#c44e52;stroke:#000000;stroke-linejoin:miter;stroke-width:0.3;"/>
   </g>
   <g id="patch_48">
    <path clip-path="url(#pd1f42f6685)" d="
M264.476 145.542
L280.628 145.542
L280.628 137.889
L264.476 137.889
z
" style="fill:#c44e52;stroke:#000000;stroke-linejoin:miter;stroke-width:0.3;"/>
   </g>
   <g id="patch_49">
    <path clip-path="url(#pd1f42f6685)" d="
M296.781 158.456
L312.934 158.456
L312.934 149.368
L296.781 149.368
z
" style="fill:#c44e52;stroke:#000000;stroke-linejoin:miter;stroke-width:0.3;"/>
   </g>
   <g id="patch_50">
    <path clip-path="url(#pd1f42f6685)" d="
M329.086 158.695
L345.239 158.695
L345.239 149.846
L329.086 149.846
z
" style="fill:#c44e52;stroke:#000000;stroke-linejoin:miter;stroke-width:0.3;"/>
   </g>
   <g id="patch_51">
    <path clip-path="url(#pd1f42f6685)" d="
M361.391 153.912
L377.544 153.912
L377.544 148.89
L361.391 148.89
z
" style="fill:#c44e52;stroke:#000000;stroke-linejoin:miter;stroke-width:0.3;"/>
   </g>
   <g id="patch_52">
    <path clip-path="url(#pd1f42f6685)" d="
M393.697 162.521
L409.849 162.521
L409.849 157.26
L393.697 157.26
z
" style="fill:#c44e52;stroke:#000000;stroke-linejoin:miter;stroke-width:0.3;"/>
   </g>
   <g id="patch_53">
    <path clip-path="url(#pd1f42f6685)" d="
M426.002 152.238
L442.155 152.238
L442.155 147.216
L426.002 147.216
z
" style="fill:#c44e52;stroke:#000000;stroke-linejoin:miter;stroke-width:0.3;"/>
   </g>
   <g id="patch_54">
    <path clip-path="url(#pd1f42f6685)" d="
M458.307 159.412
L474.46 159.412
L474.46 155.825
L458.307 155.825
z
" style="fill:#c44e52;stroke:#000000;stroke-linejoin:miter;stroke-width:0.3;"/>
   </g>
   <g id="patch_55">
    <path clip-path="url(#pd1f42f6685)" d="
M490.612 143.629
L506.765 143.629
L506.765 138.128
L490.612 138.128
z
" style="fill:#c44e52;stroke:#000000;stroke-linejoin:miter;stroke-width:0.3;"/>
   </g>
   <g id="patch_56">
    <path clip-path="url(#pd1f42f6685)" d="
M522.918 167.304
L539.07 167.304
L539.07 162.282
L522.918 162.282
z
" style="fill:#c44e52;stroke:#000000;stroke-linejoin:miter;stroke-width:0.3;"/>
   </g>
   <g id="patch_57">
    <path clip-path="url(#pd1f42f6685)" d="
M555.223 146.259
L571.376 146.259
L571.376 140.998
L555.223 140.998
z
" style="fill:#c44e52;stroke:#000000;stroke-linejoin:miter;stroke-width:0.3;"/>
   </g>
   <g id="patch_58">
    <path clip-path="url(#pd1f42f6685)" d="
M587.528 157.499
L603.681 157.499
L603.681 153.194
L587.528 153.194
z
" style="fill:#c44e52;stroke:#000000;stroke-linejoin:miter;stroke-width:0.3;"/>
   </g>
   <g id="patch_59">
    <path clip-path="url(#pd1f42f6685)" d="
M619.834 161.564
L635.986 161.564
L635.986 158.216
L619.834 158.216
z
" style="fill:#c44e52;stroke:#000000;stroke-linejoin:miter;stroke-width:0.3;"/>
   </g>
   <g id="patch_60">
    <path clip-path="url(#pd1f42f6685)" d="
M38.3388 62.7984
L54.4914 62.7984
L54.4914 42.9495
L38.3388 42.9495
z
" style="fill:#8172b2;stroke:#000000;stroke-linejoin:miter;stroke-width:0.3;"/>
   </g>
   <g id="patch_61">
    <path clip-path="url(#pd1f42f6685)" d="
M70.6441 140.998
L86.7967 140.998
L86.7967 108.953
L70.6441 108.953
z
" style="fill:#8172b2;stroke:#000000;stroke-linejoin:miter;stroke-width:0.3;"/>
   </g>
   <g id="patch_62">
    <path clip-path="url(#pd1f42f6685)" d="
M102.949 126.171
L119.102 126.171
L119.102 101.779
L102.949 101.779
z
" style="fill:#8172b2;stroke:#000000;stroke-linejoin:miter;stroke-width:0.3;"/>
   </g>
   <g id="patch_63">
    <path clip-path="url(#pd1f42f6685)" d="
M135.255 122.823
L151.407 122.823
L151.407 103.214
L135.255 103.214
z
" style="fill:#8172b2;stroke:#000000;stroke-linejoin:miter;stroke-width:0.3;"/>
   </g>
   <g id="patch_64">
    <path clip-path="url(#pd1f42f6685)" d="
M167.56 118.04
L183.712 118.04
L183.712 103.214
L167.56 103.214
z
" style="fill:#8172b2;stroke:#000000;stroke-linejoin:miter;stroke-width:0.3;"/>
   </g>
   <g id="patch_65">
    <path clip-path="url(#pd1f42f6685)" d="
M199.865 102.974
L216.018 102.974
L216.018 101.061
L199.865 101.061
z
" style="fill:#8172b2;stroke:#000000;stroke-linejoin:miter;stroke-width:0.3;"/>
   </g>
   <g id="patch_66">
    <path clip-path="url(#pd1f42f6685)" d="
M232.17 149.368
L248.323 149.368
L248.323 130.954
L232.17 130.954
z
" style="fill:#8172b2;stroke:#000000;stroke-linejoin:miter;stroke-width:0.3;"/>
   </g>
   <g id="patch_67">
    <path clip-path="url(#pd1f42f6685)" d="
M264.476 137.889
L280.628 137.889
L280.628 125.932
L264.476 125.932
z
" style="fill:#8172b2;stroke:#000000;stroke-linejoin:miter;stroke-width:0.3;"/>
   </g>
   <g id="patch_68">
    <path clip-path="url(#pd1f42f6685)" d="
M296.781 149.368
L312.934 149.368
L312.934 133.824
L296.781 133.824
z
" style="fill:#8172b2;stroke:#000000;stroke-linejoin:miter;stroke-width:0.3;"/>
   </g>
   <g id="patch_69">
    <path clip-path="url(#pd1f42f6685)" d="
M329.086 149.846
L345.239 149.846
L345.239 134.302
L329.086 134.302
z
" style="fill:#8172b2;stroke:#000000;stroke-linejoin:miter;stroke-width:0.3;"/>
   </g>
   <g id="patch_70">
    <path clip-path="url(#pd1f42f6685)" d="
M361.391 148.89
L377.544 148.89
L377.544 139.085
L361.391 139.085
z
" style="fill:#8172b2;stroke:#000000;stroke-linejoin:miter;stroke-width:0.3;"/>
   </g>
   <g id="patch_71">
    <path clip-path="url(#pd1f42f6685)" d="
M393.697 157.26
L409.849 157.26
L409.849 145.064
L393.697 145.064
z
" style="fill:#8172b2;stroke:#000000;stroke-linejoin:miter;stroke-width:0.3;"/>
   </g>
   <g id="patch_72">
    <path clip-path="url(#pd1f42f6685)" d="
M426.002 147.216
L442.155 147.216
L442.155 139.085
L426.002 139.085
z
" style="fill:#8172b2;stroke:#000000;stroke-linejoin:miter;stroke-width:0.3;"/>
   </g>
   <g id="patch_73">
    <path clip-path="url(#pd1f42f6685)" d="
M458.307 155.825
L474.46 155.825
L474.46 144.585
L458.307 144.585
z
" style="fill:#8172b2;stroke:#000000;stroke-linejoin:miter;stroke-width:0.3;"/>
   </g>
   <g id="patch_74">
    <path clip-path="url(#pd1f42f6685)" d="
M490.612 179.261
L506.765 179.261
L506.765 179.261
L490.612 179.261
z
" style="fill:#8172b2;stroke:#000000;stroke-linejoin:miter;stroke-width:0.3;"/>
   </g>
   <g id="patch_75">
    <path clip-path="url(#pd1f42f6685)" d="
M522.918 162.282
L539.07 162.282
L539.07 152.716
L522.918 152.716
z
" style="fill:#8172b2;stroke:#000000;stroke-linejoin:miter;stroke-width:0.3;"/>
   </g>
   <g id="patch_76">
    <path clip-path="url(#pd1f42f6685)" d="
M555.223 179.261
L571.376 179.261
L571.376 179.261
L555.223 179.261
z
" style="fill:#8172b2;stroke:#000000;stroke-linejoin:miter;stroke-width:0.3;"/>
   </g>
   <g id="patch_77">
    <path clip-path="url(#pd1f42f6685)" d="
M587.528 153.194
L603.681 153.194
L603.681 148.89
L587.528 148.89
z
" style="fill:#8172b2;stroke:#000000;stroke-linejoin:miter;stroke-width:0.3;"/>
   </g>
   <g id="patch_78">
    <path clip-path="url(#pd1f42f6685)" d="
M619.834 158.216
L635.986 158.216
L635.986 154.151
L619.834 154.151
z
" style="fill:#8172b2;stroke:#000000;stroke-linejoin:miter;stroke-width:0.3;"/>
   </g>
   <g id="patch_79">
    <path clip-path="url(#pd1f42f6685)" d="
M38.3388 42.9495
L54.4914 42.9495
L54.4914 18.5569
L38.3388 18.5569
z
" style="fill:#ccb974;stroke:#000000;stroke-linejoin:miter;stroke-width:0.3;"/>
   </g>
   <g id="patch_80">
    <path clip-path="url(#pd1f42f6685)" d="
M70.6441 108.953
L86.7967 108.953
L86.7967 70.4509
L70.6441 70.4509
z
" style="fill:#ccb974;stroke:#000000;stroke-linejoin:miter;stroke-width:0.3;"/>
   </g>
   <g id="patch_81">
    <path clip-path="url(#pd1f42f6685)" d="
M102.949 101.779
L119.102 101.779
L119.102 70.9292
L102.949 70.9292
z
" style="fill:#ccb974;stroke:#000000;stroke-linejoin:miter;stroke-width:0.3;"/>
   </g>
   <g id="patch_82">
    <path clip-path="url(#pd1f42f6685)" d="
M135.255 103.214
L151.407 103.214
L151.407 75.9512
L135.255 75.9512
z
" style="fill:#ccb974;stroke:#000000;stroke-linejoin:miter;stroke-width:0.3;"/>
   </g>
   <g id="patch_83">
    <path clip-path="url(#pd1f42f6685)" d="
M167.56 103.214
L183.712 103.214
L183.712 81.9298
L167.56 81.9298
z
" style="fill:#ccb974;stroke:#000000;stroke-linejoin:miter;stroke-width:0.3;"/>
   </g>
   <g id="patch_84">
    <path clip-path="url(#pd1f42f6685)" d="
M199.865 101.061
L216.018 101.061
L216.018 99.6264
L199.865 99.6264
z
" style="fill:#ccb974;stroke:#000000;stroke-linejoin:miter;stroke-width:0.3;"/>
   </g>
   <g id="patch_85">
    <path clip-path="url(#pd1f42f6685)" d="
M232.17 130.954
L248.323 130.954
L248.323 103.453
L232.17 103.453
z
" style="fill:#ccb974;stroke:#000000;stroke-linejoin:miter;stroke-width:0.3;"/>
   </g>
   <g id="patch_86">
    <path clip-path="url(#pd1f42f6685)" d="
M264.476 125.932
L280.628 125.932
L280.628 103.931
L264.476 103.931
z
" style="fill:#ccb974;stroke:#000000;stroke-linejoin:miter;stroke-width:0.3;"/>
   </g>
   <g id="patch_87">
    <path clip-path="url(#pd1f42f6685)" d="
M296.781 133.824
L312.934 133.824
L312.934 111.584
L296.781 111.584
z
" style="fill:#ccb974;stroke:#000000;stroke-linejoin:miter;stroke-width:0.3;"/>
   </g>
   <g id="patch_88">
    <path clip-path="url(#pd1f42f6685)" d="
M329.086 134.302
L345.239 134.302
L345.239 112.062
L329.086 112.062
z
" style="fill:#ccb974;stroke:#000000;stroke-linejoin:miter;stroke-width:0.3;"/>
   </g>
   <g id="patch_89">
    <path clip-path="url(#pd1f42f6685)" d="
M361.391 139.085
L377.544 139.085
L377.544 126.889
L361.391 126.889
z
" style="fill:#ccb974;stroke:#000000;stroke-linejoin:miter;stroke-width:0.3;"/>
   </g>
   <g id="patch_90">
    <path clip-path="url(#pd1f42f6685)" d="
M393.697 145.064
L409.849 145.064
L409.849 127.367
L393.697 127.367
z
" style="fill:#ccb974;stroke:#000000;stroke-linejoin:miter;stroke-width:0.3;"/>
   </g>
   <g id="patch_91">
    <path clip-path="url(#pd1f42f6685)" d="
M426.002 139.085
L442.155 139.085
L442.155 128.324
L426.002 128.324
z
" style="fill:#ccb974;stroke:#000000;stroke-linejoin:miter;stroke-width:0.3;"/>
   </g>
   <g id="patch_92">
    <path clip-path="url(#pd1f42f6685)" d="
M458.307 144.585
L474.46 144.585
L474.46 133.106
L458.307 133.106
z
" style="fill:#ccb974;stroke:#000000;stroke-linejoin:miter;stroke-width:0.3;"/>
   </g>
   <g id="patch_93">
    <path clip-path="url(#pd1f42f6685)" d="
M490.612 179.261
L506.765 179.261
L506.765 179.261
L490.612 179.261
z
" style="fill:#ccb974;stroke:#000000;stroke-linejoin:miter;stroke-width:0.3;"/>
   </g>
   <g id="patch_94">
    <path clip-path="url(#pd1f42f6685)" d="
M522.918 152.716
L539.07 152.716
L539.07 139.085
L522.918 139.085
z
" style="fill:#ccb974;stroke:#000000;stroke-linejoin:miter;stroke-width:0.3;"/>
   </g>
   <g id="patch_95">
    <path clip-path="url(#pd1f42f6685)" d="
M555.223 179.261
L571.376 179.261
L571.376 179.261
L555.223 179.261
z
" style="fill:#ccb974;stroke:#000000;stroke-linejoin:miter;stroke-width:0.3;"/>
   </g>
   <g id="patch_96">
    <path clip-path="url(#pd1f42f6685)" d="
M587.528 148.89
L603.681 148.89
L603.681 142.672
L587.528 142.672
z
" style="fill:#ccb974;stroke:#000000;stroke-linejoin:miter;stroke-width:0.3;"/>
   </g>
   <g id="patch_97">
    <path clip-path="url(#pd1f42f6685)" d="
M619.834 154.151
L635.986 154.151
L635.986 144.824
L619.834 144.824
z
" style="fill:#ccb974;stroke:#000000;stroke-linejoin:miter;stroke-width:0.3;"/>
   </g>
   <g id="patch_98">
    <path d="
M30.2625 11.8609
L644.062 11.8609" style="fill:none;"/>
   </g>
   <g id="patch_99">
    <path d="
M644.063 179.261
L644.063 11.8609" style="fill:none;"/>
   </g>
   <g id="patch_100">
    <path d="
M30.2625 179.261
L644.062 179.261" style="fill:none;"/>
   </g>
   <g id="patch_101">
    <path d="
M30.2625 179.261
L30.2625 11.8609" style="fill:none;"/>
   </g>
   <g id="legend_1">
    <g id="patch_102">
     <path d="
M573.011 28.1078
L593.011 28.1078
L593.011 21.1078
L573.011 21.1078
z
" style="fill:#4c72b0;stroke:#000000;stroke-linejoin:miter;stroke-width:0.3;"/>
    </g>
    <g id="text_28">
     <!-- linux-32 -->
     <defs>
      <path d="
M39.1094 0
L24.9062 21.6875
L10.5938 0
L1.125 0
L19.9219 27.1562
L2 52.8281
L11.7188 52.8281
L24.9062 32.2812
L37.9844 52.8281
L47.7969 52.8281
L29.8906 27.25
L48.9219 0
z
" id="LiberationSans-78"/>
     </defs>
     <g style="fill:#fffff0;" transform="translate(601.0109375 28.1078125)scale(0.1 -0.1)">
      <use xlink:href="#LiberationSans-6c"/>
      <use x="22.216796875" xlink:href="#LiberationSans-69"/>
      <use x="44.43359375" xlink:href="#LiberationSans-6e"/>
      <use x="100.048828125" xlink:href="#LiberationSans-75"/>
      <use x="155.6640625" xlink:href="#LiberationSans-78"/>
      <use x="205.6640625" xlink:href="#LiberationSans-2d"/>
      <use x="238.96484375" xlink:href="#LiberationSans-33"/>
      <use x="294.580078125" xlink:href="#LiberationSans-32"/>
     </g>
    </g>
    <g id="patch_103">
     <path d="
M573.011 42.4297
L593.011 42.4297
L593.011 35.4297
L573.011 35.4297
z
" style="fill:#55a868;stroke:#000000;stroke-linejoin:miter;stroke-width:0.3;"/>
    </g>
    <g id="text_29">
     <!-- linux-64 -->
     <g style="fill:#fffff0;" transform="translate(601.0109375 42.4296875)scale(0.1 -0.1)">
      <use xlink:href="#LiberationSans-6c"/>
      <use x="22.216796875" xlink:href="#LiberationSans-69"/>
      <use x="44.43359375" xlink:href="#LiberationSans-6e"/>
      <use x="100.048828125" xlink:href="#LiberationSans-75"/>
      <use x="155.6640625" xlink:href="#LiberationSans-78"/>
      <use x="205.6640625" xlink:href="#LiberationSans-2d"/>
      <use x="238.96484375" xlink:href="#LiberationSans-36"/>
      <use x="294.580078125" xlink:href="#LiberationSans-34"/>
     </g>
    </g>
    <g id="patch_104">
     <path d="
M573.011 56.7516
L593.011 56.7516
L593.011 49.7516
L573.011 49.7516
z
" style="fill:#c44e52;stroke:#000000;stroke-linejoin:miter;stroke-width:0.3;"/>
    </g>
    <g id="text_30">
     <!-- osx-64 -->
     <g style="fill:#fffff0;" transform="translate(601.0109375 56.7515625)scale(0.1 -0.1)">
      <use xlink:href="#LiberationSans-6f"/>
      <use x="55.615234375" xlink:href="#LiberationSans-73"/>
      <use x="105.615234375" xlink:href="#LiberationSans-78"/>
      <use x="155.615234375" xlink:href="#LiberationSans-2d"/>
      <use x="188.916015625" xlink:href="#LiberationSans-36"/>
      <use x="244.53125" xlink:href="#LiberationSans-34"/>
     </g>
    </g>
    <g id="patch_105">
     <path d="
M573.011 71.0734
L593.011 71.0734
L593.011 64.0734
L573.011 64.0734
z
" style="fill:#8172b2;stroke:#000000;stroke-linejoin:miter;stroke-width:0.3;"/>
    </g>
    <g id="text_31">
     <!-- win-32 -->
     <g style="fill:#fffff0;" transform="translate(601.0109375 71.0734375)scale(0.1 -0.1)">
      <use xlink:href="#LiberationSans-77"/>
      <use x="72.216796875" xlink:href="#LiberationSans-69"/>
      <use x="94.43359375" xlink:href="#LiberationSans-6e"/>
      <use x="150.048828125" xlink:href="#LiberationSans-2d"/>
      <use x="183.349609375" xlink:href="#LiberationSans-33"/>
      <use x="238.96484375" xlink:href="#LiberationSans-32"/>
     </g>
    </g>
    <g id="patch_106">
     <path d="
M573.011 85.3953
L593.011 85.3953
L593.011 78.3953
L573.011 78.3953
z
" style="fill:#ccb974;stroke:#000000;stroke-linejoin:miter;stroke-width:0.3;"/>
    </g>
    <g id="text_32">
     <!-- win-64 -->
     <g style="fill:#fffff0;" transform="translate(601.0109375 85.3953125)scale(0.1 -0.1)">
      <use xlink:href="#LiberationSans-77"/>
      <use x="72.216796875" xlink:href="#LiberationSans-69"/>
      <use x="94.43359375" xlink:href="#LiberationSans-6e"/>
      <use x="150.048828125" xlink:href="#LiberationSans-2d"/>
      <use x="183.349609375" xlink:href="#LiberationSans-36"/>
      <use x="238.96484375" xlink:href="#LiberationSans-34"/>
     </g>
    </g>
   </g>
  </g>
 </g>
 <defs>
  <clipPath id="pd1f42f6685">
   <rect height="167.4" width="613.8" x="30.2625" y="11.8609375"/>
  </clipPath>
 </defs>
</svg>
